<svg width="91" height="90" viewBox="0 0 91 90" fill="none" xmlns="http://www.w3.org/2000/svg">
<g filter="url(#filter0_d_756_2707)">
<path d="M37.75 42.6685L40.5103 55.0898L53.1439 48.4014L37.75 42.6685Z" fill="#4DF3A3"/>
<path d="M50.8083 32.3674L37.75 42.6655L53.1439 48.3984L50.8083 32.3674Z" fill="#4DF3A3"/>
<path opacity="0.9" d="M36.2637 28.9724L37.75 42.668L50.8082 32.3699L36.2637 28.9724Z" fill="#4DF3A3"/>
<path d="M50.8082 26.0009V32.3711L36.2637 28.9735L50.8082 26.0009Z" fill="#4DF3A3"/>
<path d="M30 43.1992L37.75 42.6684L36.2637 28.9728L30 43.1992Z" fill="#4DF3A3"/>
<path d="M55.0543 52.8603L53.1433 48.4014L40.5098 55.0898L55.0543 52.8603Z" fill="#4DF3A3"/>
<path opacity="0.8" d="M40.5103 55.0898L30 43.1993L37.75 42.6685L40.5103 55.0898Z" fill="#4DF3A3"/>
<path opacity="0.8" d="M50.8086 32.3674L61.0003 38.5251L53.1442 48.3984L50.8086 32.3674Z" fill="#4DF3A3"/>
<path opacity="0.6" d="M50.8086 25.9995V32.3696L61.0003 38.5273L50.8086 25.9995Z" fill="#4DF3A3"/>
<path opacity="0.6" d="M53.1436 48.4005L55.0546 52.8594L60.9997 38.5272L53.1436 48.4005Z" fill="#4DF3A3"/>
</g>
<defs>
<filter id="filter0_d_756_2707" x="0" y="0" width="91" height="89.0898" filterUnits="userSpaceOnUse" color-interpolation-filters="sRGB">
<feFlood flood-opacity="0" result="BackgroundImageFix"/>
<feColorMatrix in="SourceAlpha" type="matrix" values="0 0 0 0 0 0 0 0 0 0 0 0 0 0 0 0 0 0 127 0" result="hardAlpha"/>
<feOffset dy="4"/>
<feGaussianBlur stdDeviation="15"/>
<feComposite in2="hardAlpha" operator="out"/>
<feColorMatrix type="matrix" values="0 0 0 0 0.301961 0 0 0 0 0.952941 0 0 0 0 0.639216 0 0 0 1 0"/>
<feBlend mode="normal" in2="BackgroundImageFix" result="effect1_dropShadow_756_2707"/>
<feBlend mode="normal" in="SourceGraphic" in2="effect1_dropShadow_756_2707" result="shape"/>
</filter>
</defs>
</svg>
