<svg width="31" height="30" viewBox="0 0 31 30" fill="none" xmlns="http://www.w3.org/2000/svg">
<path d="M7.75 16.6685L10.5103 29.0898L23.1439 22.4014L7.75 16.6685Z" fill="#4DF3A3"/>
<path d="M20.8083 6.36745L7.75 16.6655L23.1439 22.3984L20.8083 6.36745Z" fill="#4DF3A3"/>
<path opacity="0.9" d="M6.26367 2.97235L7.74998 16.668L20.8082 6.36993L6.26367 2.97235Z" fill="#4DF3A3"/>
<path d="M20.8082 0.000907421V6.37109L6.26367 2.97352L20.8082 0.000907421Z" fill="#4DF3A3"/>
<path d="M0 17.1992L7.74997 16.6684L6.26367 2.97277L0 17.1992Z" fill="#4DF3A3"/>
<path d="M25.0543 26.8603L23.1433 22.4014L10.5098 29.0898L25.0543 26.8603Z" fill="#4DF3A3"/>
<path opacity="0.8" d="M10.5103 29.0898L0 17.1993L7.74997 16.6685L10.5103 29.0898Z" fill="#4DF3A3"/>
<path opacity="0.8" d="M20.8086 6.36745L31.0003 12.5251L23.1442 22.3984L20.8086 6.36745Z" fill="#4DF3A3"/>
<path opacity="0.6" d="M20.8086 -0.000542641V6.36964L31.0003 12.5273L20.8086 -0.000542641Z" fill="#4DF3A3"/>
<path opacity="0.6" d="M23.1436 22.4005L25.0546 26.8594L30.9997 12.5272L23.1436 22.4005Z" fill="#4DF3A3"/>
</svg>
