<svg width="444" height="444" viewBox="0 0 444 444" fill="none" xmlns="http://www.w3.org/2000/svg">
<g filter="url(#filter0_f_530_2593)">
<circle cx="222" cy="222" r="72" fill="#4DE89D" fill-opacity="0.32"/>
</g>
<g opacity="0.9">
<path d="M247.462 210.58C247.462 211.743 246.548 212.657 245.385 212.657H216.06C214.897 212.657 213.983 211.743 213.983 210.58C213.983 209.417 214.897 208.503 216.06 208.503H245.302C246.549 208.503 247.462 209.5 247.462 210.58H247.462ZM245.385 201.11H216.06C214.897 201.11 213.983 202.023 213.983 203.186C213.983 204.349 214.897 205.263 216.06 205.263H245.302C246.465 205.263 247.379 204.349 247.379 203.186C247.379 202.023 246.549 201.11 245.385 201.11H245.385ZM245.385 215.98H216.06C214.897 215.98 213.983 216.894 213.983 218.057C213.983 219.22 214.897 220.134 216.06 220.134H245.302C246.465 220.134 247.379 219.22 247.379 218.057C247.379 216.894 246.549 215.98 245.385 215.98H245.385ZM262 210.58C262 216.479 259.84 222.294 255.852 227.029C256.683 228.608 257.763 229.937 259.175 230.851C260.172 231.515 260.67 232.678 260.421 233.924C260.172 235.171 259.258 236.001 258.012 236.167C257.015 236.334 256.018 236.417 255.021 236.417C251.948 236.417 249.123 235.752 246.548 234.506C241.729 236.998 236.33 238.328 230.681 238.328C213.401 238.328 199.445 225.95 199.445 210.664C199.445 195.378 213.484 183 230.681 183C247.96 182.917 261.999 195.378 261.999 210.581L262 210.58ZM257.846 210.58C257.846 197.621 245.717 187.07 230.764 187.07C215.811 187.07 203.682 197.621 203.682 210.58C203.682 223.54 215.811 234.09 230.764 234.09C236.081 234.09 241.148 232.761 245.634 230.269C246.299 229.937 247.047 229.937 247.711 230.269C249.622 231.432 251.865 232.096 254.44 232.179C253.194 230.85 252.28 229.271 251.532 227.361C251.283 226.613 251.449 225.782 251.948 225.201C255.769 221.047 257.846 215.98 257.846 210.58L257.846 210.58ZM184.409 254.028C183.412 254.693 182.997 255.773 183.246 256.936C183.495 258.016 184.409 258.846 185.572 259.013C187.649 259.262 191.387 259.428 195.125 257.601C199.113 259.677 203.682 260.758 208.334 260.758C219.964 260.758 230.016 254.195 233.505 244.392C233.921 243.312 233.339 242.149 232.259 241.733C231.179 241.318 230.016 241.9 229.601 242.979C226.776 251.037 218.053 256.603 208.334 256.603C204.014 256.603 199.777 255.523 196.122 253.446C195.457 253.114 194.71 253.114 194.045 253.446C192.55 254.36 190.888 254.776 189.476 254.941C190.307 253.945 190.888 252.782 191.386 251.452C191.635 250.705 191.469 249.874 190.971 249.293C187.732 245.97 186.07 241.816 186.07 237.413C186.07 231.1 189.642 225.201 195.707 221.546C196.704 220.964 197.036 219.718 196.454 218.722C195.873 217.725 194.627 217.392 193.63 217.974C186.319 222.294 182 229.604 182 237.413C182 242.315 183.745 247.216 187.068 251.204C186.32 252.367 185.489 253.364 184.409 254.028L184.409 254.028Z" fill="#4DF3A3"/>
</g>
<defs>
<filter id="filter0_f_530_2593" x="0" y="0" width="444" height="444" filterUnits="userSpaceOnUse" color-interpolation-filters="sRGB">
<feFlood flood-opacity="0" result="BackgroundImageFix"/>
<feBlend mode="normal" in="SourceGraphic" in2="BackgroundImageFix" result="shape"/>
<feGaussianBlur stdDeviation="75" result="effect1_foregroundBlur_530_2593"/>
</filter>
</defs>
</svg>
