<svg width="319" height="319" viewBox="0 0 319 319" fill="none" xmlns="http://www.w3.org/2000/svg">
<g opacity="0.2" filter="url(#filter0_f_339_1896)">
<circle cx="159.5" cy="159.5" r="49.5" fill="#4DF3A3" fill-opacity="0.3"/>
</g>
<path d="M165.351 133.045C164.044 132.796 162.738 133.605 162.489 134.912L152.72 182.636C152.471 183.943 153.28 185.25 154.587 185.499C154.774 185.561 154.898 185.561 155.085 185.561C156.205 185.561 157.2 184.752 157.449 183.632L167.218 135.907C167.529 134.6 166.72 133.294 165.351 133.045L165.351 133.045Z" fill="#4DF3A3"/>
<path d="M186.32 155.818L172.32 145.8C171.262 144.991 169.706 145.24 168.96 146.36C168.151 147.418 168.4 148.973 169.52 149.72L182.587 159.115L169.458 168.822C168.4 169.631 168.151 171.124 168.96 172.182C169.458 172.805 170.142 173.178 170.889 173.178C171.386 173.178 171.884 173.053 172.32 172.68L186.32 162.351C187.377 161.604 188 160.36 188 159.116C188 157.871 187.377 156.564 186.32 155.818L186.32 155.818Z" fill="#4DF3A3"/>
<path d="M151.04 146.36C150.231 145.303 148.738 144.991 147.68 145.8L133.68 155.818C132.622 156.565 132 157.809 132 159.116C132 160.423 132.622 161.605 133.618 162.414L147.618 172.743C148.053 173.054 148.551 173.241 149.049 173.241C149.795 173.241 150.542 172.929 150.978 172.245C151.787 171.187 151.537 169.632 150.48 168.885L137.413 159.116L150.48 149.721C151.599 148.974 151.849 147.481 151.04 146.36L151.04 146.36Z" fill="#4DF3A3"/>
<defs>
<filter id="filter0_f_339_1896" x="0" y="0" width="319" height="319" filterUnits="userSpaceOnUse" color-interpolation-filters="sRGB">
<feFlood flood-opacity="0" result="BackgroundImageFix"/>
<feBlend mode="normal" in="SourceGraphic" in2="BackgroundImageFix" result="shape"/>
<feGaussianBlur stdDeviation="55" result="effect1_foregroundBlur_339_1896"/>
</filter>
</defs>
</svg>
