<svg width="2807" height="4804" viewBox="0 0 2807 4804" fill="none" xmlns="http://www.w3.org/2000/svg">
<g opacity="0.4" filter="url(#filter0_f_511_1836)">
<ellipse cx="1791.47" cy="4164.8" rx="388.553" ry="194.312" fill="#4DF3A3"/>
</g>
<g opacity="0.15" filter="url(#filter1_f_511_1836)">
<path d="M1699.25 1507.49C1699.25 1681.25 1322.97 1945.51 1149.21 1945.51C975.445 1945.51 834.581 1804.65 834.581 1630.88C834.581 1457.12 975.445 1274.99 1149.21 1274.99C1322.97 1274.99 1699.25 1333.72 1699.25 1507.49Z" fill="#7933FF" fill-opacity="0.7"/>
</g>
<g opacity="0.15" filter="url(#filter2_f_511_1836)">
<path d="M1440.5 1196.15C1440.5 1369.91 1172.39 1313.26 998.628 1313.26C824.864 1313.26 684 1172.39 684 998.628C684 824.864 824.864 684 998.628 684C1172.39 684 1440.5 1022.38 1440.5 1196.15Z" fill="#3DFFA2"/>
</g>
<g opacity="0.14" filter="url(#filter3_f_511_1836)">
<path d="M2122.66 1085.64C2122.66 1259.41 1935.31 1400.27 1761.55 1400.27C1812.16 1178.01 1446.92 1259.41 1446.92 1085.64C1534.66 1029.51 1587.78 771.014 1761.55 771.014C1935.31 771.014 2122.66 911.877 2122.66 1085.64Z" fill="#55CB84"/>
</g>
<defs>
<filter id="filter0_f_511_1836" x="958.918" y="3526.49" width="1665.11" height="1276.62" filterUnits="userSpaceOnUse" color-interpolation-filters="sRGB">
<feFlood flood-opacity="0" result="BackgroundImageFix"/>
<feBlend mode="normal" in="SourceGraphic" in2="BackgroundImageFix" result="shape"/>
<feGaussianBlur stdDeviation="222" result="effect1_foregroundBlur_511_1836"/>
</filter>
<filter id="filter1_f_511_1836" x="150.581" y="590.986" width="2232.67" height="2038.52" filterUnits="userSpaceOnUse" color-interpolation-filters="sRGB">
<feFlood flood-opacity="0" result="BackgroundImageFix"/>
<feBlend mode="normal" in="SourceGraphic" in2="BackgroundImageFix" result="shape"/>
<feGaussianBlur stdDeviation="342" result="effect1_foregroundBlur_511_1836"/>
</filter>
<filter id="filter2_f_511_1836" x="0" y="0" width="2124.5" height="2006.08" filterUnits="userSpaceOnUse" color-interpolation-filters="sRGB">
<feFlood flood-opacity="0" result="BackgroundImageFix"/>
<feBlend mode="normal" in="SourceGraphic" in2="BackgroundImageFix" result="shape"/>
<feGaussianBlur stdDeviation="342" result="effect1_foregroundBlur_511_1836"/>
</filter>
<filter id="filter3_f_511_1836" x="762.918" y="87.0137" width="2043.74" height="1997.26" filterUnits="userSpaceOnUse" color-interpolation-filters="sRGB">
<feFlood flood-opacity="0" result="BackgroundImageFix"/>
<feBlend mode="normal" in="SourceGraphic" in2="BackgroundImageFix" result="shape"/>
<feGaussianBlur stdDeviation="342" result="effect1_foregroundBlur_511_1836"/>
</filter>
</defs>
</svg>
