<svg width="281" height="281" viewBox="0 0 281 281" fill="none" xmlns="http://www.w3.org/2000/svg">
<g filter="url(#filter0_f_339_1902)">
<circle cx="140.5" cy="140.5" r="30.5" fill="#4DF3A3" fill-opacity="0.24"/>
</g>
<path d="M133.481 146.263L143.944 136.506L144.895 137.526L134.432 147.283L133.481 146.263Z" fill="#4DF3A3"/>
<path d="M136.399 141.2C136.862 141.2 137.305 141.016 137.632 140.69C137.959 140.363 138.142 139.919 138.142 139.457C138.142 138.995 137.959 138.551 137.632 138.224C137.305 137.897 136.862 137.714 136.399 137.714C135.937 137.714 135.494 137.898 135.167 138.224C134.84 138.551 134.656 138.995 134.656 139.457C134.657 139.919 134.841 140.362 135.167 140.689C135.494 141.016 135.937 141.199 136.399 141.2L136.399 141.2ZM136.399 139.108C136.54 139.108 136.667 139.193 136.721 139.323C136.775 139.454 136.745 139.604 136.646 139.703C136.546 139.803 136.396 139.833 136.266 139.779C136.136 139.725 136.051 139.598 136.051 139.457C136.051 139.265 136.207 139.108 136.399 139.108L136.399 139.108Z" fill="#4DF3A3"/>
<path d="M141.977 142.586C141.515 142.586 141.072 142.77 140.745 143.096C140.418 143.423 140.234 143.867 140.234 144.329C140.234 144.791 140.418 145.235 140.745 145.562C141.072 145.888 141.515 146.072 141.977 146.072C142.44 146.072 142.883 145.888 143.21 145.562C143.537 145.235 143.721 144.791 143.721 144.329C143.72 143.867 143.536 143.424 143.209 143.097C142.883 142.77 142.44 142.587 141.977 142.586L141.977 142.586ZM141.977 144.678C141.836 144.678 141.709 144.593 141.655 144.463C141.601 144.332 141.631 144.182 141.731 144.082C141.831 143.983 141.981 143.953 142.111 144.007C142.241 144.061 142.326 144.188 142.326 144.329C142.326 144.521 142.17 144.677 141.977 144.678L141.977 144.678Z" fill="#4DF3A3"/>
<path d="M152.087 120.976C148.587 120.931 145.324 122.738 143.503 125.727L141.97 120.501C141.884 120.21 141.62 120.008 141.317 120.001C141.011 119.987 140.734 120.18 140.641 120.471L137.177 130.541L128.384 124.677C128.133 124.509 127.801 124.523 127.564 124.711C127.327 124.9 127.238 125.219 127.345 125.503L131.096 135.482L120.617 136.703C120.317 136.738 120.074 136.962 120.014 137.257C119.954 137.553 120.092 137.854 120.355 138.002L129.567 143.207L122.314 150.962C122.108 151.182 122.068 151.511 122.214 151.775C122.36 152.039 122.66 152.179 122.956 152.122L133.307 150.118L132.676 160.774H132.677C132.659 161.077 132.839 161.356 133.121 161.465C133.404 161.574 133.725 161.489 133.915 161.253L140.576 152.992L146.852 161.548L146.852 161.549C147.032 161.793 147.348 161.893 147.636 161.797C147.923 161.701 148.116 161.429 148.112 161.126L147.964 150.458L158.219 152.931V152.931C158.512 153.002 158.818 152.876 158.976 152.618C159.134 152.361 159.108 152.031 158.912 151.801L152.007 143.719L161.451 138.946V138.946C161.721 138.81 161.872 138.515 161.826 138.217C161.78 137.918 161.546 137.684 161.249 137.635L158.15 137.131V137.13C160.444 135.493 161.817 132.859 161.848 130.04C161.848 125.042 157.469 120.977 152.087 120.977L152.087 120.976ZM158.911 138.668L150.587 142.875V142.875C150.396 142.971 150.26 143.15 150.218 143.36C150.176 143.57 150.233 143.787 150.372 143.95L156.456 151.073L147.418 148.892C147.209 148.84 146.988 148.889 146.82 149.025C146.652 149.159 146.555 149.364 146.558 149.579L146.688 158.966L141.166 151.437C141.038 151.263 140.836 151.158 140.62 151.153C140.404 151.152 140.199 151.247 140.061 151.412L134.198 158.683L134.753 149.304V149.304C134.765 149.089 134.678 148.881 134.516 148.739C134.354 148.597 134.136 148.538 133.924 148.579L124.802 150.346L131.192 143.513C131.338 143.356 131.404 143.142 131.371 142.931C131.339 142.719 131.211 142.535 131.025 142.429L122.903 137.841L132.143 136.764L132.143 136.764C132.357 136.739 132.547 136.618 132.658 136.435C132.77 136.251 132.791 136.027 132.715 135.826L129.413 127.039L137.156 132.203V132.203C137.336 132.323 137.562 132.353 137.766 132.284C137.971 132.214 138.132 132.054 138.202 131.85L141.248 122.994L142.501 127.26L142.84 127.16V127.16C142.502 128.083 142.328 129.057 142.326 130.04C142.326 135.038 146.705 139.104 152.087 139.104C153.517 139.104 154.931 138.807 156.239 138.231L158.911 138.668ZM152.087 137.71C147.474 137.71 143.72 134.269 143.72 130.041C143.72 125.812 147.474 122.371 152.087 122.371C156.7 122.371 160.453 125.812 160.453 130.041C160.453 134.269 156.7 137.71 152.087 137.71Z" fill="#4DF3A3"/>
<path d="M152.765 124.957C152.701 124.741 152.536 124.57 152.323 124.497C152.111 124.424 151.876 124.458 151.692 124.589L145.17 129.242V129.242C145.098 129.293 145.036 129.358 144.989 129.432C144.46 130.102 144.303 130.993 144.572 131.803C144.923 132.513 145.576 133.028 146.348 133.205C146.4 133.217 146.453 133.223 146.507 133.223C146.559 133.223 146.612 133.217 146.664 133.205L146.996 133.128L147.23 133.118L147.406 134.982L148.794 134.851L148.625 133.06L154.207 132.825L154.207 132.825C154.422 132.816 154.621 132.708 154.746 132.533C154.871 132.358 154.907 132.135 154.846 131.929L152.765 124.957ZM146.873 131.738H146.873C146.83 131.74 146.787 131.746 146.745 131.755L146.532 131.804C146.252 131.719 146.014 131.532 145.864 131.28C145.798 130.934 145.881 130.576 146.094 130.296L146.941 129.692L147.347 131.718L146.873 131.738ZM148.758 131.658L148.185 128.804L151.708 126.29L153.254 131.469L148.758 131.658Z" fill="#4DF3A3"/>
<path d="M154.655 127.287L156.746 126.591L157.187 127.914L155.095 128.61L154.655 127.287Z" fill="#4DF3A3"/>
<path d="M155.353 130.7L155.794 129.377L157.885 130.074L157.444 131.397L155.353 130.7Z" fill="#4DF3A3"/>
<path d="M153.685 125.365L155.08 123.971L156.065 124.956L154.671 126.351L153.685 125.365Z" fill="#4DF3A3"/>
<defs>
<filter id="filter0_f_339_1902" x="0" y="0" width="281" height="281" filterUnits="userSpaceOnUse" color-interpolation-filters="sRGB">
<feFlood flood-opacity="0" result="BackgroundImageFix"/>
<feBlend mode="normal" in="SourceGraphic" in2="BackgroundImageFix" result="shape"/>
<feGaussianBlur stdDeviation="55" result="effect1_foregroundBlur_339_1902"/>
</filter>
</defs>
</svg>
