<svg width="77" height="184" viewBox="0 0 77 184" fill="none" xmlns="http://www.w3.org/2000/svg">
<path d="M73.2246 3C71.3225 3.89291 71.0356 9.36059 70.7533 10.9915C67.9296 27.3055 66.0504 43.825 62.241 59.8449C53.7751 95.4475 42.6391 128.376 22.0839 156.317C19.1091 160.36 14.9803 168.186 9.71533 169.171C7.90648 169.509 6.41919 156.315 6.03834 154.278L3.92458 142.974C3.30057 139.637 4.64949 149.748 4.53144 153.112C4.29152 159.949 3.53445 166.727 3.09597 173.536C2.83354 177.611 2.82886 180.575 6.90506 180.122C26.5187 177.939 45.8669 173.879 65.2393 170.256" stroke="#36FF4A" stroke-width="6" stroke-linecap="round"/>
</svg>
