<svg width="319" height="319" viewBox="0 0 319 319" fill="none" xmlns="http://www.w3.org/2000/svg">
<g opacity="0.24" filter="url(#filter0_f_339_1913)">
<circle cx="159.5" cy="159.5" r="49.5" fill="#4DF3A3" fill-opacity="0.5"/>
</g>
<path d="M139.743 131C144.001 131 147.496 134.495 147.496 138.753V142.614C147.496 146.872 144.002 150.367 139.743 150.367C135.481 150.367 131.989 146.877 131.989 142.614V138.753C131.989 134.491 135.482 131 139.743 131ZM159.316 195.24L183.111 195.239C184.065 195.239 184.609 196.309 184.085 197.079L174.227 214.071C174.009 214.446 173.616 214.656 173.211 214.656C163.986 214.657 154.761 214.66 145.536 214.66C145.211 214.66 144.916 214.528 144.703 214.315L138.4 208.012L140.065 206.346L146.023 212.304H148.741L150.944 208.506H150.794C150.446 208.503 150.101 208.349 149.87 208.054C148.341 206.109 141.612 199.439 138.375 199.095C137.468 199 136.538 199.235 135.661 200.006C130.99 204.107 132.298 216.89 132.3 216.926L129.964 217.138C129.96 217.099 128.52 203.153 134.116 198.239C135.552 196.98 137.097 196.596 138.622 196.758C142.559 197.175 149.231 203.573 151.356 206.149H152.311L158.299 195.827C158.517 195.453 158.91 195.242 159.316 195.24L159.316 195.24ZM185.246 153.718H222.706C225.064 153.718 227 155.655 227 158.012V186.586C227 188.95 225.069 190.879 222.706 190.879H199.539L189.82 198.889C189.074 199.502 187.959 198.998 187.904 198.057L187.433 190.879H185.246C182.887 190.879 180.953 188.947 180.953 186.586V174.513H135.928C134.379 174.513 134.379 172.157 135.928 172.157H180.953V158.011C180.953 155.646 182.881 153.718 185.246 153.718L185.246 153.718ZM222.706 156.074H185.246C184.181 156.074 183.308 156.947 183.308 158.012V186.586C183.308 187.652 184.18 188.523 185.246 188.523H188.533C189.149 188.525 189.668 189.003 189.706 189.626L190.097 195.617L198.304 188.852C198.515 188.648 198.804 188.522 199.121 188.522H222.707C223.774 188.522 224.645 187.654 224.645 186.586V158.011C224.645 156.941 223.776 156.074 222.707 156.074L222.706 156.074ZM203.974 159.418C206.871 159.418 209.245 161.787 209.245 164.684V167.091C209.245 169.983 206.871 172.357 203.979 172.357C201.081 172.357 198.708 169.988 198.708 167.091V164.684C198.708 161.792 201.081 159.418 203.974 159.418ZM203.979 161.774C202.378 161.774 201.063 163.081 201.063 164.684V167.091C201.063 168.69 202.373 170.001 203.974 170.001C205.574 170.001 206.889 168.692 206.889 167.091V164.684C206.889 163.084 205.579 161.774 203.979 161.774ZM196.156 182.774C196.15 184.316 193.804 184.308 193.81 182.764C193.854 176.741 198.62 173.021 204.312 173.091C209.906 173.159 214.312 176.894 214.136 182.801C214.098 184.339 211.751 184.285 211.79 182.737C211.925 178.195 208.545 175.489 204.284 175.437C199.934 175.383 196.191 178.13 196.156 182.774V182.774ZM142.535 175.534C146.793 175.534 150.288 179.028 150.288 183.286V187.148C150.288 191.405 146.793 194.9 142.535 194.9C138.272 194.9 134.781 191.41 134.781 187.148V183.286C134.781 179.025 138.274 175.534 142.535 175.534ZM142.535 177.889C139.568 177.889 137.137 180.318 137.137 183.286V187.148C137.137 190.116 139.564 192.545 142.535 192.545C145.507 192.545 147.932 190.119 147.932 187.148V183.286C147.932 180.315 145.507 177.889 142.535 177.889ZM138.721 219.045C137.172 219.045 137.172 216.689 138.721 216.689H185.375C186.923 216.689 186.923 219.045 185.375 219.045H138.721ZM181.068 197.595H159.99L151.457 212.305H172.535L181.068 197.595ZM139.742 133.357C136.775 133.357 134.343 135.786 134.343 138.754V142.615C134.343 145.583 136.771 148.012 139.742 148.012C142.713 148.012 145.139 145.587 145.139 142.615V138.754C145.139 135.782 142.713 133.357 139.742 133.357ZM127.169 172.607C127.165 172.568 125.725 158.622 131.321 153.707C132.757 152.448 134.302 152.065 135.828 152.227C139.764 152.644 146.437 159.042 148.562 161.618H149.527L155.504 151.296C155.722 150.922 156.115 150.711 156.52 150.709L180.316 150.707C181.27 150.707 181.814 151.778 181.29 152.547L171.432 169.54C171.214 169.914 170.821 170.125 170.416 170.125C161.191 170.126 151.966 170.128 142.74 170.128C142.416 170.128 142.121 169.996 141.908 169.783L135.605 163.48L137.27 161.815L143.228 167.773H160.525C161.568 167.773 162.028 166.745 162.028 165.84C162.028 164.919 161.581 163.968 160.525 163.969L148 163.974C147.651 163.972 147.306 163.818 147.075 163.523C145.547 161.577 138.818 154.908 135.58 154.564C134.673 154.469 133.744 154.704 132.866 155.475C128.196 159.576 129.503 172.358 129.506 172.395L127.169 172.607L127.169 172.607ZM152.241 161.619H160.525C162.956 161.622 164.379 163.574 164.374 165.84C164.373 166.494 164.247 167.171 163.988 167.773H169.741L178.274 153.064H157.195L152.241 161.619Z" fill="#4DF3A3"/>
<defs>
<filter id="filter0_f_339_1913" x="0" y="0" width="319" height="319" filterUnits="userSpaceOnUse" color-interpolation-filters="sRGB">
<feFlood flood-opacity="0" result="BackgroundImageFix"/>
<feBlend mode="normal" in="SourceGraphic" in2="BackgroundImageFix" result="shape"/>
<feGaussianBlur stdDeviation="55" result="effect1_foregroundBlur_339_1913"/>
</filter>
</defs>
</svg>
