<svg width="425" height="423" viewBox="0 0 425 423" fill="none" xmlns="http://www.w3.org/2000/svg">
<path d="M11.8664 173.289C-9.78675 140.77 -0.978246 96.8547 31.5408 75.2016C68.8584 50.3532 119.584 66.0444 136.353 107.624L239.683 363.837C247.086 382.193 240.821 403.23 224.581 414.544C205.058 428.145 178.17 423.046 164.982 403.241L11.8664 173.289Z" fill="#773EEF"/>
<path d="M194.098 115.076C172.445 82.557 181.254 38.6418 213.773 16.9886C251.09 -7.85977 301.815 7.83142 318.584 49.4109L421.915 305.624C429.318 323.98 423.053 345.017 406.813 356.331C387.29 369.932 360.402 364.833 347.214 345.028L194.098 115.076Z" fill="#773EEF"/>
<path d="M208.817 17.5421C208.389 8.29154 215.542 0.445837 224.792 0.0182548C234.339 -0.423003 242.323 7.19166 242.334 16.7483L242.76 380.9C242.765 385.166 239.631 388.785 235.409 389.392C230.402 390.111 225.864 386.359 225.631 381.305L208.817 17.5421Z" fill="#773EEF"/>
</svg>
