<svg width="526" height="468" viewBox="0 0 526 468" fill="none" xmlns="http://www.w3.org/2000/svg">
<path d="M133.778 463.458C84.1562 477.615 32.4532 448.865 18.2964 399.243C2.05066 342.298 42.1995 284.797 101.255 280.431L465.155 253.522C491.226 251.594 515.17 267.94 522.869 292.923C532.125 322.956 514.892 354.73 484.671 363.352L133.778 463.458Z" fill="#773EEF"/>
<path d="M133.863 210.783C84.2414 224.939 32.5384 196.189 18.3817 146.567C2.13589 89.6225 42.2847 32.1218 101.34 27.7549L465.24 0.845981C491.311 -1.08188 515.255 15.2641 522.955 40.2469C532.211 70.2799 514.977 102.054 484.756 110.676L133.863 210.783Z" fill="#773EEF"/>
<path d="M17.0841 153.024C5.27449 149.84 -1.71797 137.686 1.46599 125.876C4.75179 113.689 17.5436 106.708 29.5707 110.539L487.858 256.516C493.226 258.226 496.52 263.625 495.584 269.181C494.474 275.769 487.928 279.968 481.477 278.228L17.0841 153.024Z" fill="#773EEF"/>
</svg>
