<svg width="444" height="373" viewBox="0 0 444 373" fill="none" xmlns="http://www.w3.org/2000/svg">
<g filter="url(#filter0_f_530_2613)">
<circle cx="222" cy="222" r="72" fill="#4DE89D" fill-opacity="0.24"/>
</g>
<g opacity="0.9">
<path d="M227.758 196.891C228.686 196.891 229.192 195.879 228.602 195.119L222.781 187.443C222.359 186.852 221.431 186.852 221.009 187.443L215.188 195.204C214.682 195.963 215.188 196.976 216.032 196.976H219.069V224.224C219.069 224.646 219.406 224.983 219.828 224.983H223.709C224.131 224.983 224.468 224.646 224.468 224.224V196.892L227.758 196.891Z" fill="#4DF3A3"/>
<path d="M201.271 203.982H204.308V217.31C204.308 217.732 204.645 218.069 205.067 218.069H208.948C209.37 218.069 209.707 217.732 209.707 217.31V203.982H212.744C213.672 203.982 214.178 202.969 213.588 202.21L207.935 194.533C207.513 193.942 206.585 193.942 206.163 194.533L200.342 202.294C199.837 202.969 200.343 203.982 201.271 203.982H201.271Z" fill="#4DF3A3"/>
<path d="M230.964 203.982H234.001L234 217.31C234 217.732 234.338 218.069 234.759 218.069H238.64C239.062 218.069 239.399 217.732 239.399 217.31L239.4 203.982H242.437C243.365 203.982 243.871 202.969 243.281 202.21L237.712 194.533C237.29 193.942 236.362 193.942 235.94 194.533L230.12 202.294C229.529 202.969 230.036 203.982 230.964 203.982H230.964Z" fill="#4DF3A3"/>
<path d="M261.499 210.05C261.077 209.375 260.318 208.869 259.474 208.701C258.377 208.532 257.281 208.954 256.606 209.882L251.038 217.727C251.207 217.895 251.291 218.064 251.375 218.233C252.893 220.426 252.725 223.378 250.953 225.403L250.616 225.826C248.338 228.441 245.807 230.888 243.192 233.081L240.999 234.853C240.24 235.443 239.227 235.359 238.637 234.599C238.046 233.84 238.131 232.828 238.89 232.237L241.083 230.466C243.614 228.441 245.976 226.079 248.169 223.633L248.591 223.211C249.35 222.367 249.435 221.102 248.76 220.174C248.338 219.583 247.832 219.246 247.157 219.077C246.482 218.993 245.807 219.077 245.301 219.499L232.985 227.935C231.635 228.863 230.623 230.213 230.201 231.816L225.73 246.241H241.59L252.219 239.745C254.075 238.649 255.425 236.793 255.931 234.768L261.921 212.413C262.089 211.569 262.005 210.725 261.499 210.05V210.05Z" fill="#4DF3A3"/>
<path d="M213.669 231.817C213.163 230.299 212.235 228.864 210.886 227.936L198.738 219.416C198.147 218.994 197.557 218.91 196.882 218.994C196.207 219.078 195.617 219.5 195.279 220.091C194.604 221.019 194.688 222.284 195.448 223.128L195.87 223.55C197.979 225.996 200.341 228.274 202.956 230.382L205.149 232.154C205.486 232.407 205.74 232.829 205.74 233.251C205.824 233.673 205.656 234.095 205.402 234.516C205.149 234.853 204.728 235.107 204.306 235.107C203.884 235.191 203.462 235.023 203.041 234.77L200.847 232.998C198.148 230.805 195.617 228.358 193.424 225.743L193.002 225.321C191.23 223.297 191.062 220.344 192.58 218.151C192.664 217.982 192.833 217.813 192.917 217.645L187.349 209.799C186.674 208.872 185.577 208.45 184.481 208.618C183.637 208.787 182.963 209.209 182.456 209.968C182.035 210.643 181.866 211.487 182.119 212.33L188.109 234.685C188.7 236.794 189.965 238.566 191.821 239.662L202.45 246.158H218.309L213.669 231.817Z" fill="#4DF3A3"/>
<path d="M225.058 256.36C225.058 257.119 225.648 257.71 226.407 257.71H239.061C239.82 257.71 240.411 257.119 240.411 256.36V249.527H225.058L225.058 256.36Z" fill="#4DF3A3"/>
<path d="M203.377 256.36C203.377 257.119 203.968 257.71 204.727 257.71H217.381C218.14 257.71 218.815 257.119 218.815 256.36V249.527H203.377L203.377 256.36Z" fill="#4DF3A3"/>
</g>
<defs>
<filter id="filter0_f_530_2613" x="0" y="0" width="444" height="444" filterUnits="userSpaceOnUse" color-interpolation-filters="sRGB">
<feFlood flood-opacity="0" result="BackgroundImageFix"/>
<feBlend mode="normal" in="SourceGraphic" in2="BackgroundImageFix" result="shape"/>
<feGaussianBlur stdDeviation="75" result="effect1_foregroundBlur_530_2613"/>
</filter>
</defs>
</svg>
