<svg width="687" height="152" viewBox="0 0 687 152" fill="none" xmlns="http://www.w3.org/2000/svg">
<path d="M427.339 26.4416C337.874 26.4416 249.87 25.8193 162.827 40.5943C126.948 46.6844 89.0714 56.1188 60.2179 70.7963C45.9319 78.0635 23.2133 90.5763 27.853 103.771C37.2589 130.519 115.679 139.849 147.323 143.165C211.952 149.936 294.044 150.31 358.614 146.861C445.421 142.224 533.225 130.358 612.019 107.272C629.566 102.131 711.874 79.7755 674.271 56.5951C661.233 48.5573 643.205 43.9798 626.084 39.6216C570.765 25.5404 510.172 18.9562 451.393 13.6021C384.814 7.53747 332.883 5.40738 266.234 3.87522C208.336 2.54423 149.251 2.11285 91.7037 7.18237C60.8052 9.90433 26.2991 13.9715 3 27.3171" stroke="#36FF4A" stroke-width="6" stroke-linecap="round"/>
</svg>
