<svg width="57" height="61" viewBox="0 0 57 61" fill="none" xmlns="http://www.w3.org/2000/svg">
<path d="M31.558 22.4252C26.7851 19.1533 19.6054 13.5888 13.7149 11.6713C10.4671 10.614 7.52822 10.8929 5.17973 13.3575C2.54499 16.1224 2.04253 21.7298 2.00117 25.3117C1.93552 30.9971 4.64308 36.2815 8.07966 40.6627C12.4131 46.1873 18.0608 50.9337 20.4801 57.7591C21.3856 60.3137 23.8153 56.8967 24.7732 55.9378C31.9009 48.803 37.7464 40.3002 43.8655 32.3086C47.0087 28.2037 48.8601 23.6598 50.8613 18.9187C52.3631 15.3604 54.7238 11.0259 54.9845 7.11922C55.3121 2.20975 50.3818 1.57207 46.2839 2.20163C41.7901 2.89201 38.5831 6.54519 35.8056 9.83495C34.3862 11.5162 32.6978 13.3091 31.89 15.4081C31.2733 17.0107 30.7649 18.8092 29.6982 20.1869" stroke="#36FF4A" stroke-width="3.72752" stroke-linecap="round"/>
</svg>
