<svg width="1512" height="712" viewBox="0 0 1512 712" fill="none" xmlns="http://www.w3.org/2000/svg">
<g clip-path="url(#clip0_383_1232)">
<rect width="1512" height="712" fill="#101C26"/>
<g clip-path="url(#clip1_383_1232)">
<circle r="44.4878" transform="matrix(0 -1 -1 0 1383.03 721.799)" stroke="url(#paint0_linear_383_1232)" stroke-opacity="0.09" stroke-width="0.999725"/>
<circle r="44.4878" transform="matrix(0 -1 -1 0 1383.03 631.822)" stroke="url(#paint1_linear_383_1232)" stroke-opacity="0.09" stroke-width="0.999725"/>
<circle r="44.4878" transform="matrix(0 -1 -1 0 1383.03 541.845)" stroke="url(#paint2_linear_383_1232)" stroke-opacity="0.09" stroke-width="0.999725"/>
<circle r="44.4878" transform="matrix(0 -1 -1 0 1383.03 451.868)" stroke="url(#paint3_linear_383_1232)" stroke-opacity="0.09" stroke-width="0.999725"/>
<circle r="44.4878" transform="matrix(0 -1 -1 0 1295.05 691.799)" stroke="url(#paint4_linear_383_1232)" stroke-opacity="0.09" stroke-width="0.999725"/>
<circle r="44.4878" transform="matrix(0 -1 -1 0 1295.05 601.826)" stroke="url(#paint5_linear_383_1232)" stroke-opacity="0.09" stroke-width="0.999725"/>
<circle r="44.4878" transform="matrix(0 -1 -1 0 1295.05 511.848)" stroke="url(#paint6_linear_383_1232)" stroke-opacity="0.09" stroke-width="0.999725"/>
<circle r="44.4878" transform="matrix(0 -1 -1 0 1205.08 736.797)" stroke="url(#paint7_linear_383_1232)" stroke-opacity="0.09" stroke-width="0.999725"/>
<circle r="44.4878" transform="matrix(0 -1 -1 0 1205.08 646.82)" stroke="url(#paint8_linear_383_1232)" stroke-opacity="0.09" stroke-width="0.999725"/>
<circle r="44.4878" transform="matrix(0 -1 -1 0 1205.08 556.842)" stroke="url(#paint9_linear_383_1232)" stroke-opacity="0.09" stroke-width="0.999725"/>
<circle r="44.4878" transform="matrix(0 -1 -1 0 1115.1 691.807)" stroke="url(#paint10_linear_383_1232)" stroke-opacity="0.09" stroke-width="0.999725"/>
<circle r="44.4878" transform="matrix(0 -1 -1 0 1115.1 601.83)" stroke="url(#paint11_linear_383_1232)" stroke-opacity="0.09" stroke-width="0.999725"/>
<circle r="44.4878" transform="matrix(0 -1 -1 0 1027.13 735.794)" stroke="url(#paint12_linear_383_1232)" stroke-opacity="0.09" stroke-width="0.999725"/>
<circle r="44.4878" transform="matrix(0 -1 -1 0 1027.13 645.816)" stroke="url(#paint13_linear_383_1232)" stroke-opacity="0.09" stroke-width="0.999725"/>
<circle r="44.4878" transform="matrix(0 -1 -1 0 1467.01 674.816)" stroke="url(#paint14_linear_383_1232)" stroke-opacity="0.09" stroke-width="0.999725"/>
<circle r="44.4878" transform="matrix(0 -1 -1 0 1467.01 584.839)" stroke="url(#paint15_linear_383_1232)" stroke-opacity="0.09" stroke-width="0.999725"/>
<circle r="44.4878" transform="matrix(0 -1 -1 0 1467.01 494.862)" stroke="url(#paint16_linear_383_1232)" stroke-opacity="0.09" stroke-width="0.999725"/>
<circle r="44.4878" transform="matrix(0 -1 -1 0 1467.01 404.884)" stroke="url(#paint17_linear_383_1232)" stroke-opacity="0.09" stroke-width="0.999725"/>
<circle r="44.4878" transform="matrix(0 -1 -1 0 1467.01 314.912)" stroke="url(#paint18_linear_383_1232)" stroke-opacity="0.09" stroke-width="0.999725"/>
<circle r="44.4878" transform="matrix(0 -1 -1 0 1467.01 224.934)" stroke="url(#paint19_linear_383_1232)" stroke-opacity="0.09" stroke-width="0.999725"/>
<circle r="44.4878" transform="matrix(0 -1 -1 0 1467.01 134.962)" stroke="url(#paint20_linear_383_1232)" stroke-opacity="0.09" stroke-width="0.999725"/>
<circle r="44.4878" transform="matrix(0 -1 -1 0 1467.01 44.9841)" stroke="url(#paint21_linear_383_1232)" stroke-opacity="0.09" stroke-width="0.999725"/>
<circle r="44.4878" transform="matrix(0 -1 -1 0 1383.03 361.899)" stroke="url(#paint22_linear_383_1232)" stroke-opacity="0.09" stroke-width="0.999725"/>
<circle r="44.4878" transform="matrix(0 -1 -1 0 1383.03 271.922)" stroke="url(#paint23_linear_383_1232)" stroke-opacity="0.09" stroke-width="0.999725"/>
<circle r="44.4878" transform="matrix(0 -1 -1 0 1383.03 181.945)" stroke="url(#paint24_linear_383_1232)" stroke-opacity="0.09" stroke-width="0.999725"/>
<circle r="44.4878" transform="matrix(0 -1 -1 0 1383.03 91.9675)" stroke="url(#paint25_linear_383_1232)" stroke-opacity="0.09" stroke-width="0.999725"/>
<circle r="44.4878" transform="matrix(0 -1 -1 0 1295.05 421.88)" stroke="url(#paint26_linear_383_1232)" stroke-opacity="0.09" stroke-width="0.999725"/>
<circle r="44.4878" transform="matrix(0 -1 -1 0 1295.05 331.902)" stroke="url(#paint27_linear_383_1232)" stroke-opacity="0.09" stroke-width="0.999725"/>
<circle r="44.4878" transform="matrix(0 -1 -1 0 1247.88 266.764)" stroke="url(#paint28_linear_383_1232)" stroke-opacity="0.09" stroke-width="0.999725"/>
<circle r="44.4878" transform="matrix(0 -1 -1 0 1295.05 151.952)" stroke="url(#paint29_linear_383_1232)" stroke-opacity="0.09" stroke-width="0.999725"/>
<circle r="44.4878" transform="matrix(0 -1 -1 0 1205.08 466.87)" stroke="url(#paint30_linear_383_1232)" stroke-opacity="0.09" stroke-width="0.999725"/>
<circle r="44.4878" transform="matrix(0 -1 -1 0 1205.08 376.892)" stroke="url(#paint31_linear_383_1232)" stroke-opacity="0.09" stroke-width="0.999725"/>
<circle r="44.4878" transform="matrix(0 -1 -1 0 1205.08 286.92)" stroke="url(#paint32_linear_383_1232)" stroke-opacity="0.09" stroke-width="0.999725"/>
<circle r="44.4878" transform="matrix(0 -1 -1 0 1205.08 196.942)" stroke="url(#paint33_linear_383_1232)" stroke-opacity="0.09" stroke-width="0.999725"/>
<circle r="44.4878" transform="matrix(0 -1 -1 0 1115.1 511.853)" stroke="url(#paint34_linear_383_1232)" stroke-opacity="0.09" stroke-width="0.999725"/>
<circle r="44.4878" transform="matrix(0 -1 -1 0 1115.1 421.876)" stroke="url(#paint35_linear_383_1232)" stroke-opacity="0.06" stroke-width="0.999725"/>
<circle r="44.4878" transform="matrix(0 -1 -1 0 1115.1 331.903)" stroke="url(#paint36_linear_383_1232)" stroke-opacity="0.09" stroke-width="0.999725"/>
<circle r="44.4878" transform="matrix(0 -1 -1 0 1115.1 241.925)" stroke="url(#paint37_linear_383_1232)" stroke-opacity="0.09" stroke-width="0.999725"/>
<circle r="44.4878" transform="matrix(0 -1 -1 0 1027.13 555.843)" stroke="url(#paint38_linear_383_1232)" stroke-opacity="0.09" stroke-width="0.999725"/>
<circle r="44.4878" transform="matrix(0 -1 -1 0 1027.13 465.866)" stroke="url(#paint39_linear_383_1232)" stroke-opacity="0.09" stroke-width="0.999725"/>
<circle r="44.4878" transform="matrix(0 -1 -1 0 1027.13 375.889)" stroke="url(#paint40_linear_383_1232)" stroke-opacity="0.06" stroke-width="0.999725"/>
<circle r="44.4878" transform="matrix(0 -1 -1 0 1027.13 285.912)" stroke="url(#paint41_linear_383_1232)" stroke-opacity="0.09" stroke-width="0.999725"/>
<circle r="44.4878" transform="matrix(0 -1 -1 0 937.152 697.803)" stroke="url(#paint42_linear_383_1232)" stroke-opacity="0.09" stroke-width="0.999725"/>
<circle r="44.4878" transform="matrix(0 -1 -1 0 937.149 607.827)" stroke="url(#paint43_linear_383_1232)" stroke-opacity="0.09" stroke-width="0.999725"/>
<circle r="44.4878" transform="matrix(0 -1 -1 0 937.149 517.849)" stroke="url(#paint44_linear_383_1232)" stroke-opacity="0.09" stroke-width="0.999725"/>
<circle r="44.4878" transform="matrix(0 -1 -1 0 937.15 427.877)" stroke="url(#paint45_linear_383_1232)" stroke-opacity="0.09" stroke-width="0.999725"/>
<circle r="44.4878" transform="matrix(0 -1 -1 0 937.15 337.899)" stroke="url(#paint46_linear_383_1232)" stroke-opacity="0.09" stroke-width="0.999725"/>
<circle r="44.4878" transform="matrix(0 -1 -1 0 856.835 741.764)" stroke="url(#paint47_linear_383_1232)" stroke-opacity="0.09" stroke-width="0.999725"/>
<circle r="44.4878" transform="matrix(0 -1 -1 0 856.834 651.796)" stroke="url(#paint48_linear_383_1232)" stroke-opacity="0.09" stroke-width="0.999725"/>
<circle r="44.4878" transform="matrix(0 -1 -1 0 856.834 561.818)" stroke="url(#paint49_linear_383_1232)" stroke-opacity="0.09" stroke-width="0.999725"/>
<circle r="44.4878" transform="matrix(0 -1 -1 0 856.834 471.841)" stroke="url(#paint50_linear_383_1232)" stroke-opacity="0.09" stroke-width="0.999725"/>
<circle r="44.4878" transform="matrix(0 -1 -1 0 856.834 381.864)" stroke="url(#paint51_linear_383_1232)" stroke-opacity="0.06" stroke-width="0.999725"/>
<circle r="44.4878" transform="matrix(0 -1 -1 0 773.403 696.961)" stroke="url(#paint52_linear_383_1232)" stroke-opacity="0.09" stroke-width="0.999725"/>
<circle r="44.4878" transform="matrix(0 -1 -1 0 773.403 606.983)" stroke="url(#paint53_linear_383_1232)" stroke-opacity="0.09" stroke-width="0.999725"/>
<circle r="44.4878" transform="matrix(0 -1 -1 0 773.403 517.007)" stroke="url(#paint54_linear_383_1232)" stroke-opacity="0.09" stroke-width="0.999725"/>
<circle r="44.4878" transform="matrix(0 -1 -1 0 773.403 427.029)" stroke="url(#paint55_linear_383_1232)" stroke-opacity="0.09" stroke-width="0.999725"/>
<circle r="44.4878" transform="matrix(0 -1 -1 0 678.99 741.008)" stroke="url(#paint56_linear_383_1232)" stroke-opacity="0.09" stroke-width="0.999725"/>
<circle r="44.4878" transform="matrix(0 -1 -1 0 678.99 651.031)" stroke="url(#paint57_linear_383_1232)" stroke-opacity="0.09" stroke-width="0.999725"/>
<circle r="44.4878" transform="matrix(0 -1 -1 0 678.99 561.054)" stroke="url(#paint58_linear_383_1232)" stroke-opacity="0.09" stroke-width="0.999725"/>
<circle r="44.4878" transform="matrix(0 -1 -1 0 678.99 471.077)" stroke="url(#paint59_linear_383_1232)" stroke-opacity="0.09" stroke-width="0.999725"/>
</g>
<g clip-path="url(#clip2_383_1232)">
<circle cx="128.97" cy="721.8" r="44.4878" transform="rotate(-90 128.97 721.8)" stroke="url(#paint60_linear_383_1232)" stroke-opacity="0.09" stroke-width="0.999725"/>
<circle cx="128.97" cy="631.823" r="44.4878" transform="rotate(-90 128.97 631.823)" stroke="url(#paint61_linear_383_1232)" stroke-opacity="0.09" stroke-width="0.999725"/>
<circle cx="128.971" cy="541.85" r="44.4878" transform="rotate(-90 128.971 541.85)" stroke="url(#paint62_linear_383_1232)" stroke-opacity="0.09" stroke-width="0.999725"/>
<circle cx="128.971" cy="451.873" r="44.4878" transform="rotate(-90 128.971 451.873)" stroke="url(#paint63_linear_383_1232)" stroke-opacity="0.09" stroke-width="0.999725"/>
<circle cx="216.946" cy="691.81" r="44.4878" transform="rotate(-90 216.946 691.81)" stroke="url(#paint64_linear_383_1232)" stroke-opacity="0.09" stroke-width="0.999725"/>
<circle cx="216.945" cy="601.834" r="44.4878" transform="rotate(-90 216.945 601.834)" stroke="url(#paint65_linear_383_1232)" stroke-opacity="0.09" stroke-width="0.999725"/>
<circle cx="216.945" cy="511.856" r="44.4878" transform="rotate(-90 216.945 511.856)" stroke="url(#paint66_linear_383_1232)" stroke-opacity="0.09" stroke-width="0.999725"/>
<circle cx="306.921" cy="736.793" r="44.4878" transform="rotate(-90 306.921 736.793)" stroke="url(#paint67_linear_383_1232)" stroke-opacity="0.09" stroke-width="0.999725"/>
<circle cx="306.921" cy="646.816" r="44.4878" transform="rotate(-90 306.921 646.816)" stroke="url(#paint68_linear_383_1232)" stroke-opacity="0.09" stroke-width="0.999725"/>
<circle cx="306.921" cy="556.839" r="44.4878" transform="rotate(-90 306.921 556.839)" stroke="url(#paint69_linear_383_1232)" stroke-opacity="0.09" stroke-width="0.999725"/>
<circle cx="396.896" cy="691.807" r="44.4878" transform="rotate(-90 396.896 691.807)" stroke="url(#paint70_linear_383_1232)" stroke-opacity="0.09" stroke-width="0.999725"/>
<circle cx="396.896" cy="601.83" r="44.4878" transform="rotate(-90 396.896 601.83)" stroke="url(#paint71_linear_383_1232)" stroke-opacity="0.09" stroke-width="0.999725"/>
<circle cx="484.873" cy="735.798" r="44.4878" transform="rotate(-90 484.873 735.798)" stroke="url(#paint72_linear_383_1232)" stroke-opacity="0.09" stroke-width="0.999725"/>
<circle cx="484.873" cy="645.82" r="44.4878" transform="rotate(-90 484.873 645.82)" stroke="url(#paint73_linear_383_1232)" stroke-opacity="0.09" stroke-width="0.999725"/>
<circle cx="574.848" cy="697.803" r="44.4878" transform="rotate(-90 574.848 697.803)" stroke="url(#paint74_linear_383_1232)" stroke-opacity="0.09" stroke-width="0.999725"/>
<circle cx="44.9881" cy="674.812" r="44.4878" transform="rotate(-90 44.9881 674.812)" stroke="url(#paint75_linear_383_1232)" stroke-opacity="0.09" stroke-width="0.999725"/>
<circle cx="44.9881" cy="584.835" r="44.4878" transform="rotate(-90 44.9881 584.835)" stroke="url(#paint76_linear_383_1232)" stroke-opacity="0.09" stroke-width="0.999725"/>
<circle cx="44.9886" cy="494.858" r="44.4878" transform="rotate(-90 44.9886 494.858)" stroke="url(#paint77_linear_383_1232)" stroke-opacity="0.09" stroke-width="0.999725"/>
<circle cx="44.9886" cy="404.881" r="44.4878" transform="rotate(-90 44.9886 404.881)" stroke="url(#paint78_linear_383_1232)" stroke-opacity="0.09" stroke-width="0.999725"/>
<circle cx="44.9886" cy="314.916" r="44.4878" transform="rotate(-90 44.9886 314.916)" stroke="url(#paint79_linear_383_1232)" stroke-opacity="0.09" stroke-width="0.999725"/>
<circle cx="44.9886" cy="224.938" r="44.4878" transform="rotate(-90 44.9886 224.938)" stroke="url(#paint80_linear_383_1232)" stroke-opacity="0.09" stroke-width="0.999725"/>
<circle cx="44.9881" cy="134.962" r="44.4878" transform="rotate(-90 44.9881 134.962)" stroke="url(#paint81_linear_383_1232)" stroke-opacity="0.09" stroke-width="0.999725"/>
<circle cx="44.9881" cy="44.9841" r="44.4878" transform="rotate(-90 44.9881 44.9841)" stroke="url(#paint82_linear_383_1232)" stroke-opacity="0.09" stroke-width="0.999725"/>
<circle cx="128.97" cy="361.899" r="44.4878" transform="rotate(-90 128.97 361.899)" stroke="url(#paint83_linear_383_1232)" stroke-opacity="0.09" stroke-width="0.999725"/>
<circle cx="128.97" cy="271.922" r="44.4878" transform="rotate(-90 128.97 271.922)" stroke="url(#paint84_linear_383_1232)" stroke-opacity="0.09" stroke-width="0.999725"/>
<circle cx="128.97" cy="181.945" r="44.4878" transform="rotate(-90 128.97 181.945)" stroke="url(#paint85_linear_383_1232)" stroke-opacity="0.09" stroke-width="0.999725"/>
<circle cx="128.97" cy="91.9675" r="44.4878" transform="rotate(-90 128.97 91.9675)" stroke="url(#paint86_linear_383_1232)" stroke-opacity="0.09" stroke-width="0.999725"/>
<circle cx="216.946" cy="421.88" r="44.4878" transform="rotate(-90 216.946 421.88)" stroke="url(#paint87_linear_383_1232)" stroke-opacity="0.09" stroke-width="0.999725"/>
<circle cx="216.946" cy="331.902" r="44.4878" transform="rotate(-90 216.946 331.902)" stroke="url(#paint88_linear_383_1232)" stroke-opacity="0.09" stroke-width="0.999725"/>
<circle cx="216.946" cy="241.929" r="44.4878" transform="rotate(-90 216.946 241.929)" stroke="url(#paint89_linear_383_1232)" stroke-opacity="0.09" stroke-width="0.999725"/>
<circle cx="216.946" cy="151.952" r="44.4878" transform="rotate(-90 216.946 151.952)" stroke="url(#paint90_linear_383_1232)" stroke-opacity="0.09" stroke-width="0.999725"/>
<circle cx="306.92" cy="466.878" r="44.4878" transform="rotate(-90 306.92 466.878)" stroke="url(#paint91_linear_383_1232)" stroke-opacity="0.09" stroke-width="0.999725"/>
<circle cx="306.92" cy="376.9" r="44.4878" transform="rotate(-90 306.92 376.9)" stroke="url(#paint92_linear_383_1232)" stroke-opacity="0.09" stroke-width="0.999725"/>
<circle cx="306.921" cy="286.924" r="44.4878" transform="rotate(-90 306.921 286.924)" stroke="url(#paint93_linear_383_1232)" stroke-opacity="0.09" stroke-width="0.999725"/>
<circle cx="306.921" cy="196.946" r="44.4878" transform="rotate(-90 306.921 196.946)" stroke="url(#paint94_linear_383_1232)" stroke-opacity="0.09" stroke-width="0.999725"/>
<circle cx="396.896" cy="511.861" r="44.4878" transform="rotate(-90 396.896 511.861)" stroke="url(#paint95_linear_383_1232)" stroke-opacity="0.09" stroke-width="0.999725"/>
<circle cx="396.896" cy="421.883" r="44.4878" transform="rotate(-90 396.896 421.883)" stroke="url(#paint96_linear_383_1232)" stroke-opacity="0.09" stroke-width="0.999725"/>
<circle cx="396.897" cy="331.907" r="44.4878" transform="rotate(-90 396.897 331.907)" stroke="url(#paint97_linear_383_1232)" stroke-opacity="0.09" stroke-width="0.999725"/>
<circle cx="396.897" cy="241.929" r="44.4878" transform="rotate(-90 396.897 241.929)" stroke="url(#paint98_linear_383_1232)" stroke-opacity="0.09" stroke-width="0.999725"/>
<circle cx="484.872" cy="555.847" r="44.4878" transform="rotate(-90 484.872 555.847)" stroke="url(#paint99_linear_383_1232)" stroke-opacity="0.09" stroke-width="0.999725"/>
<circle cx="484.872" cy="465.87" r="44.4878" transform="rotate(-90 484.872 465.87)" stroke="url(#paint100_linear_383_1232)" stroke-opacity="0.09" stroke-width="0.999725"/>
<circle cx="484.873" cy="375.893" r="44.4878" transform="rotate(-90 484.873 375.893)" stroke="url(#paint101_linear_383_1232)" stroke-opacity="0.06" stroke-width="0.999725"/>
<circle cx="484.873" cy="285.916" r="44.4878" transform="rotate(-90 484.873 285.916)" stroke="url(#paint102_linear_383_1232)" stroke-opacity="0.09" stroke-width="0.999725"/>
<circle cx="574.847" cy="607.835" r="44.4878" transform="rotate(-90 574.847 607.835)" stroke="url(#paint103_linear_383_1232)" stroke-opacity="0.09" stroke-width="0.999725"/>
<circle cx="574.847" cy="517.857" r="44.4878" transform="rotate(-90 574.847 517.857)" stroke="url(#paint104_linear_383_1232)" stroke-opacity="0.09" stroke-width="0.999725"/>
<circle cx="574.847" cy="427.881" r="44.4878" transform="rotate(-90 574.847 427.881)" stroke="url(#paint105_linear_383_1232)" stroke-opacity="0.09" stroke-width="0.999725"/>
<circle cx="574.847" cy="337.903" r="44.4878" transform="rotate(-90 574.847 337.903)" stroke="url(#paint106_linear_383_1232)" stroke-opacity="0.09" stroke-width="0.999725"/>
</g>
</g>
<defs>
<linearGradient id="paint0_linear_383_1232" x1="83.477" y1="20.4944" x2="16.4955" y2="62.4828" gradientUnits="userSpaceOnUse">
<stop stop-color="#D2D2D2"/>
<stop offset="1" stop-color="#D2D2D2" stop-opacity="0"/>
</linearGradient>
<linearGradient id="paint1_linear_383_1232" x1="83.477" y1="20.4944" x2="16.4955" y2="62.4828" gradientUnits="userSpaceOnUse">
<stop stop-color="#D2D2D2"/>
<stop offset="1" stop-color="#D2D2D2" stop-opacity="0"/>
</linearGradient>
<linearGradient id="paint2_linear_383_1232" x1="83.477" y1="20.4944" x2="16.4955" y2="62.4828" gradientUnits="userSpaceOnUse">
<stop stop-color="#D2D2D2"/>
<stop offset="1" stop-color="#D2D2D2" stop-opacity="0"/>
</linearGradient>
<linearGradient id="paint3_linear_383_1232" x1="83.477" y1="20.4944" x2="16.4955" y2="62.4828" gradientUnits="userSpaceOnUse">
<stop stop-color="#D2D2D2"/>
<stop offset="1" stop-color="#D2D2D2" stop-opacity="0"/>
</linearGradient>
<linearGradient id="paint4_linear_383_1232" x1="83.477" y1="20.4944" x2="16.4955" y2="62.4828" gradientUnits="userSpaceOnUse">
<stop stop-color="#D2D2D2"/>
<stop offset="1" stop-color="#D2D2D2" stop-opacity="0"/>
</linearGradient>
<linearGradient id="paint5_linear_383_1232" x1="83.477" y1="20.4944" x2="16.4955" y2="62.4828" gradientUnits="userSpaceOnUse">
<stop stop-color="#D2D2D2"/>
<stop offset="1" stop-color="#D2D2D2" stop-opacity="0"/>
</linearGradient>
<linearGradient id="paint6_linear_383_1232" x1="83.477" y1="20.4944" x2="16.4955" y2="62.4828" gradientUnits="userSpaceOnUse">
<stop stop-color="#D2D2D2"/>
<stop offset="1" stop-color="#D2D2D2" stop-opacity="0"/>
</linearGradient>
<linearGradient id="paint7_linear_383_1232" x1="83.477" y1="20.4944" x2="16.4955" y2="62.4828" gradientUnits="userSpaceOnUse">
<stop stop-color="#D2D2D2"/>
<stop offset="1" stop-color="#D2D2D2" stop-opacity="0"/>
</linearGradient>
<linearGradient id="paint8_linear_383_1232" x1="83.477" y1="20.4944" x2="16.4955" y2="62.4828" gradientUnits="userSpaceOnUse">
<stop stop-color="#D2D2D2"/>
<stop offset="1" stop-color="#D2D2D2" stop-opacity="0"/>
</linearGradient>
<linearGradient id="paint9_linear_383_1232" x1="83.477" y1="20.4944" x2="16.4955" y2="62.4828" gradientUnits="userSpaceOnUse">
<stop stop-color="#D2D2D2"/>
<stop offset="1" stop-color="#D2D2D2" stop-opacity="0"/>
</linearGradient>
<linearGradient id="paint10_linear_383_1232" x1="83.477" y1="20.4944" x2="16.4955" y2="62.4828" gradientUnits="userSpaceOnUse">
<stop stop-color="#D2D2D2"/>
<stop offset="1" stop-color="#D2D2D2" stop-opacity="0"/>
</linearGradient>
<linearGradient id="paint11_linear_383_1232" x1="83.477" y1="20.4944" x2="16.4955" y2="62.4828" gradientUnits="userSpaceOnUse">
<stop stop-color="#D2D2D2"/>
<stop offset="1" stop-color="#D2D2D2" stop-opacity="0"/>
</linearGradient>
<linearGradient id="paint12_linear_383_1232" x1="83.477" y1="20.4944" x2="16.4955" y2="62.4828" gradientUnits="userSpaceOnUse">
<stop stop-color="#D2D2D2"/>
<stop offset="1" stop-color="#D2D2D2" stop-opacity="0"/>
</linearGradient>
<linearGradient id="paint13_linear_383_1232" x1="83.477" y1="20.4944" x2="16.4955" y2="62.4828" gradientUnits="userSpaceOnUse">
<stop stop-color="#D2D2D2"/>
<stop offset="1" stop-color="#D2D2D2" stop-opacity="0"/>
</linearGradient>
<linearGradient id="paint14_linear_383_1232" x1="83.477" y1="20.4944" x2="16.4955" y2="62.4828" gradientUnits="userSpaceOnUse">
<stop stop-color="#D2D2D2"/>
<stop offset="1" stop-color="#D2D2D2" stop-opacity="0"/>
</linearGradient>
<linearGradient id="paint15_linear_383_1232" x1="83.477" y1="20.4944" x2="16.4955" y2="62.4828" gradientUnits="userSpaceOnUse">
<stop stop-color="#D2D2D2"/>
<stop offset="1" stop-color="#D2D2D2" stop-opacity="0"/>
</linearGradient>
<linearGradient id="paint16_linear_383_1232" x1="83.477" y1="20.4944" x2="16.4955" y2="62.4828" gradientUnits="userSpaceOnUse">
<stop stop-color="#D2D2D2"/>
<stop offset="1" stop-color="#D2D2D2" stop-opacity="0"/>
</linearGradient>
<linearGradient id="paint17_linear_383_1232" x1="83.477" y1="20.4944" x2="16.4955" y2="62.4828" gradientUnits="userSpaceOnUse">
<stop stop-color="#D2D2D2"/>
<stop offset="1" stop-color="#D2D2D2" stop-opacity="0"/>
</linearGradient>
<linearGradient id="paint18_linear_383_1232" x1="83.477" y1="20.4944" x2="16.4955" y2="62.4828" gradientUnits="userSpaceOnUse">
<stop stop-color="#D2D2D2"/>
<stop offset="1" stop-color="#D2D2D2" stop-opacity="0"/>
</linearGradient>
<linearGradient id="paint19_linear_383_1232" x1="83.477" y1="20.4944" x2="16.4955" y2="62.4828" gradientUnits="userSpaceOnUse">
<stop stop-color="#D2D2D2"/>
<stop offset="1" stop-color="#D2D2D2" stop-opacity="0"/>
</linearGradient>
<linearGradient id="paint20_linear_383_1232" x1="83.477" y1="20.4944" x2="16.4955" y2="62.4828" gradientUnits="userSpaceOnUse">
<stop stop-color="#D2D2D2"/>
<stop offset="1" stop-color="#D2D2D2" stop-opacity="0"/>
</linearGradient>
<linearGradient id="paint21_linear_383_1232" x1="83.477" y1="20.4944" x2="16.4955" y2="62.4828" gradientUnits="userSpaceOnUse">
<stop stop-color="#D2D2D2"/>
<stop offset="1" stop-color="#D2D2D2" stop-opacity="0"/>
</linearGradient>
<linearGradient id="paint22_linear_383_1232" x1="83.477" y1="20.4944" x2="16.4955" y2="62.4828" gradientUnits="userSpaceOnUse">
<stop stop-color="#D2D2D2"/>
<stop offset="1" stop-color="#D2D2D2" stop-opacity="0"/>
</linearGradient>
<linearGradient id="paint23_linear_383_1232" x1="83.477" y1="20.4944" x2="16.4955" y2="62.4828" gradientUnits="userSpaceOnUse">
<stop stop-color="#D2D2D2"/>
<stop offset="1" stop-color="#D2D2D2" stop-opacity="0"/>
</linearGradient>
<linearGradient id="paint24_linear_383_1232" x1="83.477" y1="20.4944" x2="16.4955" y2="62.4828" gradientUnits="userSpaceOnUse">
<stop stop-color="#D2D2D2"/>
<stop offset="1" stop-color="#D2D2D2" stop-opacity="0"/>
</linearGradient>
<linearGradient id="paint25_linear_383_1232" x1="83.477" y1="20.4944" x2="16.4955" y2="62.4828" gradientUnits="userSpaceOnUse">
<stop stop-color="#D2D2D2"/>
<stop offset="1" stop-color="#D2D2D2" stop-opacity="0"/>
</linearGradient>
<linearGradient id="paint26_linear_383_1232" x1="83.477" y1="20.4944" x2="16.4955" y2="62.4828" gradientUnits="userSpaceOnUse">
<stop stop-color="#D2D2D2"/>
<stop offset="1" stop-color="#D2D2D2" stop-opacity="0"/>
</linearGradient>
<linearGradient id="paint27_linear_383_1232" x1="83.477" y1="20.4944" x2="16.4955" y2="62.4828" gradientUnits="userSpaceOnUse">
<stop stop-color="#D2D2D2"/>
<stop offset="1" stop-color="#D2D2D2" stop-opacity="0"/>
</linearGradient>
<linearGradient id="paint28_linear_383_1232" x1="83.477" y1="20.4944" x2="16.4955" y2="62.4828" gradientUnits="userSpaceOnUse">
<stop stop-color="#D2D2D2"/>
<stop offset="1" stop-color="#D2D2D2" stop-opacity="0"/>
</linearGradient>
<linearGradient id="paint29_linear_383_1232" x1="83.477" y1="20.4944" x2="16.4955" y2="62.4828" gradientUnits="userSpaceOnUse">
<stop stop-color="#D2D2D2"/>
<stop offset="1" stop-color="#D2D2D2" stop-opacity="0"/>
</linearGradient>
<linearGradient id="paint30_linear_383_1232" x1="83.477" y1="20.4944" x2="16.4955" y2="62.4828" gradientUnits="userSpaceOnUse">
<stop stop-color="#D2D2D2"/>
<stop offset="1" stop-color="#D2D2D2" stop-opacity="0"/>
</linearGradient>
<linearGradient id="paint31_linear_383_1232" x1="83.477" y1="20.4944" x2="16.4955" y2="62.4828" gradientUnits="userSpaceOnUse">
<stop stop-color="#D2D2D2"/>
<stop offset="1" stop-color="#D2D2D2" stop-opacity="0"/>
</linearGradient>
<linearGradient id="paint32_linear_383_1232" x1="83.477" y1="20.4944" x2="16.4955" y2="62.4828" gradientUnits="userSpaceOnUse">
<stop stop-color="#D2D2D2"/>
<stop offset="1" stop-color="#D2D2D2" stop-opacity="0"/>
</linearGradient>
<linearGradient id="paint33_linear_383_1232" x1="83.477" y1="20.4944" x2="16.4955" y2="62.4828" gradientUnits="userSpaceOnUse">
<stop stop-color="#D2D2D2"/>
<stop offset="1" stop-color="#D2D2D2" stop-opacity="0"/>
</linearGradient>
<linearGradient id="paint34_linear_383_1232" x1="83.477" y1="20.4944" x2="16.4955" y2="62.4828" gradientUnits="userSpaceOnUse">
<stop stop-color="#D2D2D2"/>
<stop offset="1" stop-color="#D2D2D2" stop-opacity="0"/>
</linearGradient>
<linearGradient id="paint35_linear_383_1232" x1="83.477" y1="20.4944" x2="16.4955" y2="62.4828" gradientUnits="userSpaceOnUse">
<stop stop-color="#D2D2D2"/>
<stop offset="1" stop-color="#D2D2D2" stop-opacity="0"/>
</linearGradient>
<linearGradient id="paint36_linear_383_1232" x1="83.477" y1="20.4944" x2="16.4955" y2="62.4828" gradientUnits="userSpaceOnUse">
<stop stop-color="#D2D2D2"/>
<stop offset="1" stop-color="#D2D2D2" stop-opacity="0"/>
</linearGradient>
<linearGradient id="paint37_linear_383_1232" x1="83.477" y1="20.4944" x2="16.4955" y2="62.4828" gradientUnits="userSpaceOnUse">
<stop stop-color="#D2D2D2"/>
<stop offset="1" stop-color="#D2D2D2" stop-opacity="0"/>
</linearGradient>
<linearGradient id="paint38_linear_383_1232" x1="83.477" y1="20.4944" x2="16.4955" y2="62.4828" gradientUnits="userSpaceOnUse">
<stop stop-color="#D2D2D2"/>
<stop offset="1" stop-color="#D2D2D2" stop-opacity="0"/>
</linearGradient>
<linearGradient id="paint39_linear_383_1232" x1="83.477" y1="20.4944" x2="16.4955" y2="62.4828" gradientUnits="userSpaceOnUse">
<stop stop-color="#D2D2D2"/>
<stop offset="1" stop-color="#D2D2D2" stop-opacity="0"/>
</linearGradient>
<linearGradient id="paint40_linear_383_1232" x1="83.477" y1="20.4944" x2="16.4955" y2="62.4828" gradientUnits="userSpaceOnUse">
<stop stop-color="#D2D2D2"/>
<stop offset="1" stop-color="#D2D2D2" stop-opacity="0"/>
</linearGradient>
<linearGradient id="paint41_linear_383_1232" x1="83.477" y1="20.4944" x2="16.4955" y2="62.4828" gradientUnits="userSpaceOnUse">
<stop stop-color="#D2D2D2"/>
<stop offset="1" stop-color="#D2D2D2" stop-opacity="0"/>
</linearGradient>
<linearGradient id="paint42_linear_383_1232" x1="83.477" y1="20.4944" x2="16.4955" y2="62.4828" gradientUnits="userSpaceOnUse">
<stop stop-color="#D2D2D2"/>
<stop offset="1" stop-color="#D2D2D2" stop-opacity="0"/>
</linearGradient>
<linearGradient id="paint43_linear_383_1232" x1="83.477" y1="20.4944" x2="16.4955" y2="62.4828" gradientUnits="userSpaceOnUse">
<stop stop-color="#D2D2D2"/>
<stop offset="1" stop-color="#D2D2D2" stop-opacity="0"/>
</linearGradient>
<linearGradient id="paint44_linear_383_1232" x1="83.477" y1="20.4944" x2="16.4955" y2="62.4828" gradientUnits="userSpaceOnUse">
<stop stop-color="#D2D2D2"/>
<stop offset="1" stop-color="#D2D2D2" stop-opacity="0"/>
</linearGradient>
<linearGradient id="paint45_linear_383_1232" x1="83.477" y1="20.4944" x2="16.4955" y2="62.4828" gradientUnits="userSpaceOnUse">
<stop stop-color="#D2D2D2"/>
<stop offset="1" stop-color="#D2D2D2" stop-opacity="0"/>
</linearGradient>
<linearGradient id="paint46_linear_383_1232" x1="83.477" y1="20.4944" x2="16.4955" y2="62.4828" gradientUnits="userSpaceOnUse">
<stop stop-color="#D2D2D2"/>
<stop offset="1" stop-color="#D2D2D2" stop-opacity="0"/>
</linearGradient>
<linearGradient id="paint47_linear_383_1232" x1="83.477" y1="20.4944" x2="16.4955" y2="62.4828" gradientUnits="userSpaceOnUse">
<stop stop-color="#D2D2D2"/>
<stop offset="1" stop-color="#D2D2D2" stop-opacity="0"/>
</linearGradient>
<linearGradient id="paint48_linear_383_1232" x1="83.477" y1="20.4944" x2="16.4955" y2="62.4828" gradientUnits="userSpaceOnUse">
<stop stop-color="#D2D2D2"/>
<stop offset="1" stop-color="#D2D2D2" stop-opacity="0"/>
</linearGradient>
<linearGradient id="paint49_linear_383_1232" x1="83.477" y1="20.4944" x2="16.4955" y2="62.4828" gradientUnits="userSpaceOnUse">
<stop stop-color="#D2D2D2"/>
<stop offset="1" stop-color="#D2D2D2" stop-opacity="0"/>
</linearGradient>
<linearGradient id="paint50_linear_383_1232" x1="83.477" y1="20.4944" x2="16.4955" y2="62.4828" gradientUnits="userSpaceOnUse">
<stop stop-color="#D2D2D2"/>
<stop offset="1" stop-color="#D2D2D2" stop-opacity="0"/>
</linearGradient>
<linearGradient id="paint51_linear_383_1232" x1="83.477" y1="20.4944" x2="16.4955" y2="62.4828" gradientUnits="userSpaceOnUse">
<stop stop-color="#D2D2D2"/>
<stop offset="1" stop-color="#D2D2D2" stop-opacity="0"/>
</linearGradient>
<linearGradient id="paint52_linear_383_1232" x1="83.477" y1="20.4944" x2="16.4955" y2="62.4828" gradientUnits="userSpaceOnUse">
<stop stop-color="#D2D2D2"/>
<stop offset="1" stop-color="#D2D2D2" stop-opacity="0"/>
</linearGradient>
<linearGradient id="paint53_linear_383_1232" x1="83.477" y1="20.4944" x2="16.4955" y2="62.4828" gradientUnits="userSpaceOnUse">
<stop stop-color="#D2D2D2"/>
<stop offset="1" stop-color="#D2D2D2" stop-opacity="0"/>
</linearGradient>
<linearGradient id="paint54_linear_383_1232" x1="83.477" y1="20.4944" x2="16.4955" y2="62.4828" gradientUnits="userSpaceOnUse">
<stop stop-color="#D2D2D2"/>
<stop offset="1" stop-color="#D2D2D2" stop-opacity="0"/>
</linearGradient>
<linearGradient id="paint55_linear_383_1232" x1="83.477" y1="20.4944" x2="16.4955" y2="62.4828" gradientUnits="userSpaceOnUse">
<stop stop-color="#D2D2D2"/>
<stop offset="1" stop-color="#D2D2D2" stop-opacity="0"/>
</linearGradient>
<linearGradient id="paint56_linear_383_1232" x1="83.477" y1="20.4944" x2="16.4955" y2="62.4828" gradientUnits="userSpaceOnUse">
<stop stop-color="#D2D2D2"/>
<stop offset="1" stop-color="#D2D2D2" stop-opacity="0"/>
</linearGradient>
<linearGradient id="paint57_linear_383_1232" x1="83.477" y1="20.4944" x2="16.4955" y2="62.4828" gradientUnits="userSpaceOnUse">
<stop stop-color="#D2D2D2"/>
<stop offset="1" stop-color="#D2D2D2" stop-opacity="0"/>
</linearGradient>
<linearGradient id="paint58_linear_383_1232" x1="83.477" y1="20.4944" x2="16.4955" y2="62.4828" gradientUnits="userSpaceOnUse">
<stop stop-color="#D2D2D2"/>
<stop offset="1" stop-color="#D2D2D2" stop-opacity="0"/>
</linearGradient>
<linearGradient id="paint59_linear_383_1232" x1="83.477" y1="20.4944" x2="16.4955" y2="62.4828" gradientUnits="userSpaceOnUse">
<stop stop-color="#D2D2D2"/>
<stop offset="1" stop-color="#D2D2D2" stop-opacity="0"/>
</linearGradient>
<linearGradient id="paint60_linear_383_1232" x1="167.459" y1="697.307" x2="100.478" y2="739.296" gradientUnits="userSpaceOnUse">
<stop stop-color="#D2D2D2"/>
<stop offset="1" stop-color="#D2D2D2" stop-opacity="0"/>
</linearGradient>
<linearGradient id="paint61_linear_383_1232" x1="167.459" y1="607.33" x2="100.478" y2="649.318" gradientUnits="userSpaceOnUse">
<stop stop-color="#D2D2D2"/>
<stop offset="1" stop-color="#D2D2D2" stop-opacity="0"/>
</linearGradient>
<linearGradient id="paint62_linear_383_1232" x1="167.46" y1="517.357" x2="100.478" y2="559.345" gradientUnits="userSpaceOnUse">
<stop stop-color="#D2D2D2"/>
<stop offset="1" stop-color="#D2D2D2" stop-opacity="0"/>
</linearGradient>
<linearGradient id="paint63_linear_383_1232" x1="167.46" y1="427.379" x2="100.478" y2="469.368" gradientUnits="userSpaceOnUse">
<stop stop-color="#D2D2D2"/>
<stop offset="1" stop-color="#D2D2D2" stop-opacity="0"/>
</linearGradient>
<linearGradient id="paint64_linear_383_1232" x1="255.435" y1="667.317" x2="188.453" y2="709.305" gradientUnits="userSpaceOnUse">
<stop stop-color="#D2D2D2"/>
<stop offset="1" stop-color="#D2D2D2" stop-opacity="0"/>
</linearGradient>
<linearGradient id="paint65_linear_383_1232" x1="255.435" y1="577.34" x2="188.453" y2="619.329" gradientUnits="userSpaceOnUse">
<stop stop-color="#D2D2D2"/>
<stop offset="1" stop-color="#D2D2D2" stop-opacity="0"/>
</linearGradient>
<linearGradient id="paint66_linear_383_1232" x1="255.435" y1="487.363" x2="188.453" y2="529.351" gradientUnits="userSpaceOnUse">
<stop stop-color="#D2D2D2"/>
<stop offset="1" stop-color="#D2D2D2" stop-opacity="0"/>
</linearGradient>
<linearGradient id="paint67_linear_383_1232" x1="345.41" y1="712.299" x2="278.429" y2="754.288" gradientUnits="userSpaceOnUse">
<stop stop-color="#D2D2D2"/>
<stop offset="1" stop-color="#D2D2D2" stop-opacity="0"/>
</linearGradient>
<linearGradient id="paint68_linear_383_1232" x1="345.411" y1="622.323" x2="278.429" y2="664.311" gradientUnits="userSpaceOnUse">
<stop stop-color="#D2D2D2"/>
<stop offset="1" stop-color="#D2D2D2" stop-opacity="0"/>
</linearGradient>
<linearGradient id="paint69_linear_383_1232" x1="345.411" y1="532.345" x2="278.429" y2="574.334" gradientUnits="userSpaceOnUse">
<stop stop-color="#D2D2D2"/>
<stop offset="1" stop-color="#D2D2D2" stop-opacity="0"/>
</linearGradient>
<linearGradient id="paint70_linear_383_1232" x1="435.386" y1="667.314" x2="368.404" y2="709.303" gradientUnits="userSpaceOnUse">
<stop stop-color="#D2D2D2"/>
<stop offset="1" stop-color="#D2D2D2" stop-opacity="0"/>
</linearGradient>
<linearGradient id="paint71_linear_383_1232" x1="435.386" y1="577.337" x2="368.404" y2="619.325" gradientUnits="userSpaceOnUse">
<stop stop-color="#D2D2D2"/>
<stop offset="1" stop-color="#D2D2D2" stop-opacity="0"/>
</linearGradient>
<linearGradient id="paint72_linear_383_1232" x1="449.972" y1="764.31" x2="515.03" y2="721.175" gradientUnits="userSpaceOnUse">
<stop stop-color="#D2D2D2"/>
<stop offset="1" stop-color="#D2D2D2" stop-opacity="0"/>
</linearGradient>
<linearGradient id="paint73_linear_383_1232" x1="523.362" y1="621.327" x2="456.381" y2="663.315" gradientUnits="userSpaceOnUse">
<stop stop-color="#D2D2D2"/>
<stop offset="1" stop-color="#D2D2D2" stop-opacity="0"/>
</linearGradient>
<linearGradient id="paint74_linear_383_1232" x1="613.337" y1="673.31" x2="546.356" y2="715.299" gradientUnits="userSpaceOnUse">
<stop stop-color="#D2D2D2"/>
<stop offset="1" stop-color="#D2D2D2" stop-opacity="0"/>
</linearGradient>
<linearGradient id="paint75_linear_383_1232" x1="83.4775" y1="650.319" x2="16.4959" y2="692.307" gradientUnits="userSpaceOnUse">
<stop stop-color="#D2D2D2"/>
<stop offset="1" stop-color="#D2D2D2" stop-opacity="0"/>
</linearGradient>
<linearGradient id="paint76_linear_383_1232" x1="83.4775" y1="560.341" x2="16.4959" y2="602.33" gradientUnits="userSpaceOnUse">
<stop stop-color="#D2D2D2"/>
<stop offset="1" stop-color="#D2D2D2" stop-opacity="0"/>
</linearGradient>
<linearGradient id="paint77_linear_383_1232" x1="83.478" y1="470.365" x2="16.4964" y2="512.353" gradientUnits="userSpaceOnUse">
<stop stop-color="#D2D2D2"/>
<stop offset="1" stop-color="#D2D2D2" stop-opacity="0"/>
</linearGradient>
<linearGradient id="paint78_linear_383_1232" x1="83.478" y1="380.387" x2="16.4964" y2="422.376" gradientUnits="userSpaceOnUse">
<stop stop-color="#D2D2D2"/>
<stop offset="1" stop-color="#D2D2D2" stop-opacity="0"/>
</linearGradient>
<linearGradient id="paint79_linear_383_1232" x1="83.478" y1="290.422" x2="16.4964" y2="332.411" gradientUnits="userSpaceOnUse">
<stop stop-color="#D2D2D2"/>
<stop offset="1" stop-color="#D2D2D2" stop-opacity="0"/>
</linearGradient>
<linearGradient id="paint80_linear_383_1232" x1="83.478" y1="200.445" x2="16.4964" y2="242.433" gradientUnits="userSpaceOnUse">
<stop stop-color="#D2D2D2"/>
<stop offset="1" stop-color="#D2D2D2" stop-opacity="0"/>
</linearGradient>
<linearGradient id="paint81_linear_383_1232" x1="83.4775" y1="110.468" x2="16.4959" y2="152.457" gradientUnits="userSpaceOnUse">
<stop stop-color="#D2D2D2"/>
<stop offset="1" stop-color="#D2D2D2" stop-opacity="0"/>
</linearGradient>
<linearGradient id="paint82_linear_383_1232" x1="83.4775" y1="20.4908" x2="16.4959" y2="62.4792" gradientUnits="userSpaceOnUse">
<stop stop-color="#D2D2D2"/>
<stop offset="1" stop-color="#D2D2D2" stop-opacity="0"/>
</linearGradient>
<linearGradient id="paint83_linear_383_1232" x1="167.459" y1="337.406" x2="100.477" y2="379.394" gradientUnits="userSpaceOnUse">
<stop stop-color="#D2D2D2"/>
<stop offset="1" stop-color="#D2D2D2" stop-opacity="0"/>
</linearGradient>
<linearGradient id="paint84_linear_383_1232" x1="167.459" y1="247.428" x2="100.477" y2="289.417" gradientUnits="userSpaceOnUse">
<stop stop-color="#D2D2D2"/>
<stop offset="1" stop-color="#D2D2D2" stop-opacity="0"/>
</linearGradient>
<linearGradient id="paint85_linear_383_1232" x1="167.459" y1="157.452" x2="100.478" y2="199.44" gradientUnits="userSpaceOnUse">
<stop stop-color="#D2D2D2"/>
<stop offset="1" stop-color="#D2D2D2" stop-opacity="0"/>
</linearGradient>
<linearGradient id="paint86_linear_383_1232" x1="167.459" y1="67.4742" x2="100.478" y2="109.463" gradientUnits="userSpaceOnUse">
<stop stop-color="#D2D2D2"/>
<stop offset="1" stop-color="#D2D2D2" stop-opacity="0"/>
</linearGradient>
<linearGradient id="paint87_linear_383_1232" x1="255.436" y1="397.386" x2="188.454" y2="439.375" gradientUnits="userSpaceOnUse">
<stop stop-color="#D2D2D2"/>
<stop offset="1" stop-color="#D2D2D2" stop-opacity="0"/>
</linearGradient>
<linearGradient id="paint88_linear_383_1232" x1="255.436" y1="307.409" x2="188.454" y2="349.397" gradientUnits="userSpaceOnUse">
<stop stop-color="#D2D2D2"/>
<stop offset="1" stop-color="#D2D2D2" stop-opacity="0"/>
</linearGradient>
<linearGradient id="paint89_linear_383_1232" x1="255.435" y1="217.436" x2="188.453" y2="259.425" gradientUnits="userSpaceOnUse">
<stop stop-color="#D2D2D2"/>
<stop offset="1" stop-color="#D2D2D2" stop-opacity="0"/>
</linearGradient>
<linearGradient id="paint90_linear_383_1232" x1="255.435" y1="127.459" x2="188.453" y2="169.447" gradientUnits="userSpaceOnUse">
<stop stop-color="#D2D2D2"/>
<stop offset="1" stop-color="#D2D2D2" stop-opacity="0"/>
</linearGradient>
<linearGradient id="paint91_linear_383_1232" x1="345.41" y1="442.384" x2="278.428" y2="484.373" gradientUnits="userSpaceOnUse">
<stop stop-color="#D2D2D2"/>
<stop offset="1" stop-color="#D2D2D2" stop-opacity="0"/>
</linearGradient>
<linearGradient id="paint92_linear_383_1232" x1="345.41" y1="352.407" x2="278.428" y2="394.395" gradientUnits="userSpaceOnUse">
<stop stop-color="#D2D2D2"/>
<stop offset="1" stop-color="#D2D2D2" stop-opacity="0"/>
</linearGradient>
<linearGradient id="paint93_linear_383_1232" x1="345.41" y1="262.43" x2="278.429" y2="304.419" gradientUnits="userSpaceOnUse">
<stop stop-color="#D2D2D2"/>
<stop offset="1" stop-color="#D2D2D2" stop-opacity="0"/>
</linearGradient>
<linearGradient id="paint94_linear_383_1232" x1="345.41" y1="172.453" x2="278.429" y2="214.441" gradientUnits="userSpaceOnUse">
<stop stop-color="#D2D2D2"/>
<stop offset="1" stop-color="#D2D2D2" stop-opacity="0"/>
</linearGradient>
<linearGradient id="paint95_linear_383_1232" x1="435.386" y1="487.368" x2="368.404" y2="529.356" gradientUnits="userSpaceOnUse">
<stop stop-color="#D2D2D2"/>
<stop offset="1" stop-color="#D2D2D2" stop-opacity="0"/>
</linearGradient>
<linearGradient id="paint96_linear_383_1232" x1="435.386" y1="397.39" x2="368.404" y2="439.379" gradientUnits="userSpaceOnUse">
<stop stop-color="#D2D2D2"/>
<stop offset="1" stop-color="#D2D2D2" stop-opacity="0"/>
</linearGradient>
<linearGradient id="paint97_linear_383_1232" x1="435.386" y1="307.414" x2="368.405" y2="349.402" gradientUnits="userSpaceOnUse">
<stop stop-color="#D2D2D2"/>
<stop offset="1" stop-color="#D2D2D2" stop-opacity="0"/>
</linearGradient>
<linearGradient id="paint98_linear_383_1232" x1="435.386" y1="217.436" x2="368.405" y2="259.425" gradientUnits="userSpaceOnUse">
<stop stop-color="#D2D2D2"/>
<stop offset="1" stop-color="#D2D2D2" stop-opacity="0"/>
</linearGradient>
<linearGradient id="paint99_linear_383_1232" x1="523.362" y1="531.354" x2="456.38" y2="573.343" gradientUnits="userSpaceOnUse">
<stop stop-color="#D2D2D2"/>
<stop offset="1" stop-color="#D2D2D2" stop-opacity="0"/>
</linearGradient>
<linearGradient id="paint100_linear_383_1232" x1="523.362" y1="441.377" x2="456.38" y2="483.365" gradientUnits="userSpaceOnUse">
<stop stop-color="#D2D2D2"/>
<stop offset="1" stop-color="#D2D2D2" stop-opacity="0"/>
</linearGradient>
<linearGradient id="paint101_linear_383_1232" x1="523.362" y1="351.4" x2="456.381" y2="393.388" gradientUnits="userSpaceOnUse">
<stop stop-color="#D2D2D2"/>
<stop offset="1" stop-color="#D2D2D2" stop-opacity="0"/>
</linearGradient>
<linearGradient id="paint102_linear_383_1232" x1="523.362" y1="261.422" x2="456.381" y2="303.411" gradientUnits="userSpaceOnUse">
<stop stop-color="#D2D2D2"/>
<stop offset="1" stop-color="#D2D2D2" stop-opacity="0"/>
</linearGradient>
<linearGradient id="paint103_linear_383_1232" x1="613.336" y1="583.341" x2="546.355" y2="625.33" gradientUnits="userSpaceOnUse">
<stop stop-color="#D2D2D2"/>
<stop offset="1" stop-color="#D2D2D2" stop-opacity="0"/>
</linearGradient>
<linearGradient id="paint104_linear_383_1232" x1="613.336" y1="493.364" x2="546.355" y2="535.352" gradientUnits="userSpaceOnUse">
<stop stop-color="#D2D2D2"/>
<stop offset="1" stop-color="#D2D2D2" stop-opacity="0"/>
</linearGradient>
<linearGradient id="paint105_linear_383_1232" x1="613.337" y1="403.387" x2="546.355" y2="445.376" gradientUnits="userSpaceOnUse">
<stop stop-color="#D2D2D2"/>
<stop offset="1" stop-color="#D2D2D2" stop-opacity="0"/>
</linearGradient>
<linearGradient id="paint106_linear_383_1232" x1="613.337" y1="313.41" x2="546.355" y2="355.398" gradientUnits="userSpaceOnUse">
<stop stop-color="#D2D2D2"/>
<stop offset="1" stop-color="#D2D2D2" stop-opacity="0"/>
</linearGradient>
<clipPath id="clip0_383_1232">
<rect width="1512" height="712" fill="white"/>
</clipPath>
<clipPath id="clip1_383_1232">
<rect width="718.217" height="877.997" fill="white" transform="matrix(0 -1 -1 0 1512 718.218)"/>
</clipPath>
<clipPath id="clip2_383_1232">
<rect width="714.535" height="619.835" fill="white" transform="translate(0 714.534) rotate(-90)"/>
</clipPath>
</defs>
</svg>
