<svg width="576" height="761" viewBox="0 0 576 761" fill="none" xmlns="http://www.w3.org/2000/svg">
<g filter="url(#filter0_f_581_1462)">
<ellipse cx="174.5" cy="180.16" rx="30.5" ry="35.5" fill="#4DF3A3" fill-opacity="0.7"/>
</g>
<g filter="url(#filter1_f_581_1462)">
<ellipse cx="381.053" cy="560.844" rx="30.5" ry="35.5" fill="#4DF3A3" fill-opacity="0.7"/>
</g>
<path d="M339.496 533.178C339.771 533.154 339.975 532.912 339.951 532.637L339.564 528.153C339.54 527.878 339.298 527.674 339.022 527.698C338.747 527.722 338.544 527.964 338.567 528.239L338.912 532.225L334.927 532.569C334.652 532.593 334.448 532.835 334.472 533.11C334.495 533.386 334.738 533.589 335.013 533.565L339.496 533.178ZM214.461 320.768C214.641 321.77 214.823 322.767 215.005 323.758L215.989 323.577C215.806 322.587 215.625 321.592 215.445 320.591L214.461 320.768ZM216.112 329.644C216.496 331.642 216.884 333.619 217.278 335.575L218.259 335.378C217.865 333.425 217.477 331.451 217.094 329.455L216.112 329.644ZM218.494 341.47C218.912 343.445 219.335 345.399 219.765 347.332L220.741 347.115C220.312 345.185 219.889 343.235 219.473 341.263L218.494 341.47ZM221.107 353.212C221.57 355.187 222.04 357.14 222.519 359.072L223.49 358.832C223.012 356.904 222.543 354.955 222.081 352.984L221.107 353.212ZM224.003 364.899C224.515 366.853 225.036 368.785 225.567 370.697L226.53 370.429C226.001 368.522 225.481 366.595 224.97 364.646L224.003 364.899ZM227.226 376.498C227.799 378.441 228.383 380.363 228.978 382.265L229.933 381.966C229.339 380.07 228.757 378.153 228.185 376.215L227.226 376.498ZM230.829 387.994C231.467 389.91 232.119 391.806 232.785 393.684L233.727 393.349C233.064 391.478 232.414 389.588 231.778 387.678L230.829 387.994ZM234.852 399.333C235.566 401.224 236.296 403.097 237.042 404.952L237.97 404.579C237.227 402.73 236.5 400.864 235.788 398.979L234.852 399.333ZM239.353 410.518C240.147 412.371 240.958 414.207 241.789 416.028L242.699 415.613C241.872 413.799 241.063 411.97 240.272 410.124L239.353 410.518ZM244.352 421.478C245.23 423.288 246.128 425.084 247.046 426.866L247.935 426.408C247.02 424.633 246.126 422.845 245.252 421.042L244.352 421.478ZM249.872 432.187C250.835 433.949 251.82 435.699 252.828 437.438L253.693 436.937C252.69 435.204 251.709 433.462 250.749 431.707L249.872 432.187ZM255.912 442.613C256.959 444.32 258.028 446.019 259.122 447.709L259.961 447.166C258.872 445.482 257.807 443.791 256.765 442.09L255.912 442.613ZM262.453 452.727C263.579 454.379 264.728 456.025 265.903 457.666L266.716 457.084C265.546 455.449 264.401 453.81 263.28 452.164L262.453 452.727ZM269.466 462.528C270.665 464.126 271.889 465.72 273.138 467.312L273.925 466.695C272.68 465.109 271.461 463.52 270.266 461.928L269.466 462.528ZM276.899 472.005C278.16 473.545 279.445 475.084 280.755 476.623L281.517 475.975C280.21 474.441 278.929 472.907 277.673 471.372L276.899 472.005ZM284.702 481.172C286.022 482.666 287.367 484.16 288.736 485.656L289.474 484.981C288.108 483.489 286.767 481.999 285.451 480.51L284.702 481.172ZM292.839 490.066C294.202 491.507 295.589 492.951 297 494.398L297.716 493.7C296.308 492.256 294.925 490.816 293.566 489.378L292.839 490.066ZM301.232 498.678C302.644 500.086 304.078 501.497 305.537 502.913L306.233 502.196C304.778 500.783 303.347 499.374 301.939 497.97L301.232 498.678ZM309.871 507.072C311.31 508.436 312.772 509.805 314.256 511.18L314.935 510.447C313.454 509.074 311.995 507.707 310.559 506.346L309.871 507.072ZM318.704 515.259C320.174 516.593 321.664 517.932 323.176 519.277L323.841 518.53C322.331 517.187 320.843 515.85 319.376 514.519L318.704 515.259ZM327.68 523.25C329.181 524.563 330.703 525.882 332.246 527.209L332.898 526.451C331.357 525.126 329.837 523.808 328.338 522.497L327.68 523.25ZM336.806 531.1C337.576 531.752 338.351 532.406 339.131 533.062L339.775 532.297C338.996 531.642 338.222 530.989 337.453 530.337L336.806 531.1Z" fill="#4DF3A3"/>
<circle cx="179.453" cy="216.68" r="74" fill="url(#paint0_linear_581_1462)"/>
<path d="M203.273 211.974H201.911C201.638 211.974 201.424 212.188 201.424 212.461C201.424 212.733 201.638 212.947 201.911 212.947H203.273C205.745 212.947 207.769 210.933 207.769 208.451V206.388C207.769 204.558 206.66 202.982 205.083 202.281V190.845C206.007 190.621 206.708 189.794 206.708 188.792C206.708 187.624 205.764 186.68 204.596 186.68C203.428 186.68 202.484 187.624 202.484 188.792C202.484 189.794 203.185 190.621 204.11 190.845L204.11 201.989C203.838 201.94 203.565 201.901 203.273 201.901H201.911C201.638 201.901 201.424 202.115 201.424 202.388C201.424 202.66 201.638 202.875 201.911 202.875H203.273C205.21 202.875 206.796 204.451 206.796 206.398V208.461C206.796 210.397 205.219 211.974 203.273 211.974L203.273 211.974ZM203.458 188.791C203.458 188.159 203.974 187.653 204.597 187.653C205.229 187.653 205.736 188.169 205.736 188.791C205.736 189.414 205.22 189.93 204.597 189.93C203.964 189.93 203.458 189.424 203.458 188.791V188.791Z" fill="#4DF3A3"/>
<path d="M192.742 226.874H184.957V222.777H191.876C194.202 222.777 196.1 220.996 196.324 218.729C198.63 218.544 200.45 216.626 200.45 214.271L200.451 203.225C200.451 200.869 198.63 198.962 196.324 198.767C196.12 196.47 194.212 194.66 191.867 194.66H166.611C164.275 194.66 162.378 196.451 162.164 198.728C159.701 198.738 157.697 200.753 157.697 203.215V214.271C157.697 216.743 159.702 218.748 162.174 218.758C162.417 221.006 164.305 222.768 166.621 222.768H173.531V226.865H166.329C156.208 226.865 147.975 235.099 147.975 245.219C147.975 246.027 148.627 246.679 149.435 246.679H209.639C210.446 246.679 211.099 246.027 211.099 245.219C211.098 235.107 202.864 226.874 192.743 226.874L192.742 226.874ZM166.611 195.644H191.866C193.647 195.644 195.098 196.977 195.341 198.739L163.137 198.738C163.351 196.996 164.82 195.644 166.611 195.644L166.611 195.644ZM163.146 218.777H168.275C168.548 218.777 168.762 218.563 168.762 218.29C168.762 218.018 168.548 217.804 168.275 217.804H162.193C160.256 217.804 158.669 216.227 158.669 214.281L158.669 203.225C158.669 201.288 160.245 199.702 162.192 199.702H195.963C197.899 199.702 199.486 201.278 199.486 203.225V210.573C199.417 211.653 199.165 212.383 198.707 212.831C197.753 213.756 195.651 213.726 192.78 213.532C192.508 212.393 191.262 211.527 189.763 211.527C188.069 211.527 186.687 212.627 186.687 213.989C186.687 215.352 188.069 216.451 189.763 216.451C191.242 216.451 192.469 215.614 192.77 214.505C193.714 214.573 194.6 214.621 195.369 214.621C197.189 214.621 198.522 214.368 199.388 213.531C199.427 213.502 199.447 213.463 199.486 213.424V214.29C199.486 216.227 197.909 217.813 195.963 217.813L171.817 217.814C171.545 217.814 171.33 218.028 171.33 218.301C171.33 218.573 171.544 218.787 171.817 218.787H195.349C195.116 220.5 193.656 221.824 191.875 221.824H166.61C164.839 221.804 163.379 220.48 163.145 218.777L163.146 218.777ZM191.866 213.989C191.866 214.797 190.903 215.478 189.764 215.478C188.606 215.478 187.661 214.807 187.661 213.989C187.661 213.172 188.605 212.5 189.764 212.5C190.903 212.5 191.866 213.182 191.866 213.989ZM174.503 222.777H183.982V226.874H174.503V222.777ZM209.637 245.717H203.107C202.854 240.48 198.523 236.296 193.228 236.296H189.092C188.82 236.296 188.605 236.51 188.605 236.782C188.605 237.055 188.819 237.269 189.092 237.269H193.228C197.987 237.269 201.89 241.016 202.143 245.717L156.917 245.717C157.17 241.016 161.072 237.269 165.831 237.269H185.88C186.152 237.269 186.367 237.055 186.367 236.782C186.367 236.51 186.153 236.295 185.88 236.295H165.831C160.537 236.295 156.206 240.48 155.953 245.716L149.432 245.717C149.16 245.717 148.946 245.502 148.946 245.23C148.946 235.644 156.741 227.847 166.328 227.847H192.751C202.337 227.847 210.133 235.643 210.133 245.23C210.124 245.492 209.91 245.717 209.638 245.717H209.637Z" fill="#4DF3A3"/>
<path d="M169.492 201.852C168.149 201.852 167.068 203.107 167.068 204.664C167.068 206.222 168.158 207.487 169.492 207.487C170.825 207.487 171.915 206.222 171.915 204.664C171.915 203.107 170.825 201.852 169.492 201.852ZM169.492 206.503C168.694 206.503 168.042 205.676 168.042 204.654C168.042 203.642 168.694 202.815 169.492 202.815C170.29 202.815 170.942 203.642 170.942 204.654C170.942 205.676 170.29 206.503 169.492 206.503Z" fill="#4DF3A3"/>
<path d="M188.664 207.479C189.997 207.479 191.087 206.214 191.087 204.656C191.087 203.109 189.997 201.844 188.664 201.844C187.321 201.844 186.24 203.099 186.24 204.656C186.231 206.214 187.32 207.479 188.664 207.479ZM188.664 202.827C189.462 202.827 190.114 203.654 190.114 204.666C190.114 205.688 189.462 206.515 188.664 206.515C187.866 206.515 187.213 205.688 187.213 204.666C187.204 203.644 187.856 202.827 188.664 202.827Z" fill="#4DF3A3"/>
<path d="M179.077 215.661C182.046 215.661 184.469 213.607 184.469 211.077C184.469 210.804 184.255 210.59 183.982 210.59L174.172 210.59C173.9 210.59 173.686 210.804 173.686 211.077C173.686 213.598 176.099 215.661 179.077 215.661L179.077 215.661ZM183.447 211.564C183.156 213.325 181.306 214.688 179.078 214.688C176.849 214.688 175 213.325 174.708 211.564H183.447Z" fill="#4DF3A3"/>
<path d="M194.64 244.09C196.022 244.09 197.151 242.922 197.151 241.482C197.151 240.051 196.022 238.883 194.64 238.883C193.249 238.883 192.119 240.051 192.119 241.482C192.119 242.922 193.248 244.09 194.64 244.09ZM194.64 239.866C195.487 239.866 196.178 240.596 196.178 241.491C196.178 242.386 195.487 243.126 194.64 243.126C193.784 243.126 193.093 242.396 193.093 241.491C193.093 240.596 193.784 239.866 194.64 239.866Z" fill="#4DF3A3"/>
<path d="M164.441 238.891C163.049 238.891 161.92 240.059 161.92 241.489C161.92 242.93 163.049 244.098 164.441 244.098C165.823 244.098 166.952 242.93 166.952 241.489C166.952 240.049 165.832 238.891 164.441 238.891ZM164.441 243.115C163.584 243.115 162.894 242.385 162.894 241.479C162.894 240.584 163.584 239.854 164.441 239.854C165.287 239.854 165.979 240.584 165.979 241.479C165.978 242.385 165.287 243.115 164.441 243.115Z" fill="#4DF3A3"/>
<circle cx="381.453" cy="594.68" r="50" fill="url(#paint1_linear_581_1462)"/>
<path d="M400.855 582.812H396.655C396.324 582.812 396.055 583.081 396.055 583.412V584.516L388.194 581.638L389.504 579.401C389.672 579.126 389.57 578.737 389.289 578.58L386.181 576.762C385.896 576.595 385.528 576.691 385.36 576.976L383.449 580.238L381.162 579.821C380.927 579.78 380.688 579.88 380.555 580.079L375.885 587.084C375.751 587.285 375.663 587.507 375.624 587.744L375.139 590.652C374.942 591.458 375.654 592.206 376.092 592.793C375.975 593.044 375.509 593.619 375.574 593.914L375.916 596.896C375.938 597.084 376.047 597.251 376.21 597.346C376.373 597.442 376.572 597.454 376.745 597.381L379.511 596.217C379.631 596.167 379.731 596.079 379.796 595.967L381.252 593.483C381.05 593.575 385.829 593.521 385.855 593.534C385.894 593.534 385.934 593.53 385.973 593.522L391.314 592.454L396.055 592.454V593.612C396.055 593.944 396.323 594.212 396.655 594.212H400.855C401.186 594.212 401.455 593.944 401.455 593.612V583.412C401.455 583.081 401.186 582.812 400.855 582.812L400.855 582.812ZM376.808 587.941C376.819 587.872 376.845 587.808 376.883 587.75L381.335 581.073L382.803 581.341L376.749 591.671C376.616 591.461 376.247 591.131 376.323 590.85L376.808 587.941L376.808 587.941ZM385.309 586.561L386.482 586.939L387.195 588.721L383.572 589.526L385.309 586.561ZM378.861 595.189L377.017 595.965L376.789 593.977C378.978 590.245 383.855 581.917 386.093 578.1L388.165 579.312C386.352 582.403 383.715 586.906 381.895 590.014C380.925 590.485 379.718 591.549 380.304 592.727L378.861 595.189ZM391.254 591.254C391.215 591.254 391.176 591.258 391.136 591.266L385.795 592.334H381.612C381.468 592.335 381.271 592.182 381.387 591.96C381.797 591.314 382.508 590.979 383.284 590.819L388.144 589.739C388.497 589.67 388.713 589.261 388.571 588.931L387.491 586.231C387.425 586.065 387.288 585.937 387.118 585.883L385.931 585.501L387.577 582.69L396.054 585.793V591.254L391.254 591.254ZM400.254 593.012H397.254V584.012H400.254V593.012Z" fill="#4DF3A3"/>
<path d="M388.854 609.083C388.522 609.083 388.254 609.351 388.254 609.683V611.483H366.653V580.282H378.053C378.838 580.276 378.843 579.091 378.053 579.082H366.053C365.722 579.082 365.453 579.351 365.453 579.682V612.083C365.453 612.414 365.722 612.683 366.053 612.683H388.854C389.185 612.683 389.454 612.414 389.454 612.083V609.683C389.454 609.351 389.185 609.083 388.854 609.083Z" fill="#4DF3A3"/>
<path d="M395.65 596.638L389.474 602.253L387.478 600.258C386.923 599.705 386.076 600.549 386.63 601.106L389.03 603.506C389.147 603.623 389.3 603.682 389.454 603.682C389.598 603.682 389.743 603.63 389.858 603.526L396.458 597.526C397.033 596.999 396.236 596.111 395.651 596.638L395.65 596.638Z" fill="#4DF3A3"/>
<path d="M394.884 601.285C394.55 601.254 394.26 601.494 394.228 601.823C393.355 608.592 383.665 608.096 383.454 601.282C383.454 598.305 385.877 595.882 388.854 595.882C390.296 595.882 391.652 596.444 392.672 597.465C393.228 598.018 394.074 597.172 393.521 596.616C389.444 592.469 382.216 595.465 382.254 601.282C382.513 609.612 394.355 610.215 395.421 601.941C395.454 601.612 395.213 601.318 394.884 601.285L394.884 601.285Z" fill="#4DF3A3"/>
<path d="M375.696 603.078H370.255C369.468 603.091 369.465 604.265 370.255 604.278H375.696C376.483 604.265 376.486 603.091 375.696 603.078V603.078Z" fill="#4DF3A3"/>
<path d="M369.652 607.284C369.652 607.615 369.921 607.884 370.252 607.884H380.453C380.784 607.884 381.053 607.615 381.053 607.284C381.053 606.952 380.784 606.684 380.453 606.684H370.252C369.921 606.684 369.652 606.952 369.652 607.284Z" fill="#4DF3A3"/>
<defs>
<filter id="filter0_f_581_1462" x="0" y="0.660156" width="349" height="359" filterUnits="userSpaceOnUse" color-interpolation-filters="sRGB">
<feFlood flood-opacity="0" result="BackgroundImageFix"/>
<feBlend mode="normal" in="SourceGraphic" in2="BackgroundImageFix" result="shape"/>
<feGaussianBlur stdDeviation="72" result="effect1_foregroundBlur_581_1462"/>
</filter>
<filter id="filter1_f_581_1462" x="186.553" y="361.344" width="389" height="399" filterUnits="userSpaceOnUse" color-interpolation-filters="sRGB">
<feFlood flood-opacity="0" result="BackgroundImageFix"/>
<feBlend mode="normal" in="SourceGraphic" in2="BackgroundImageFix" result="shape"/>
<feGaussianBlur stdDeviation="82" result="effect1_foregroundBlur_581_1462"/>
</filter>
<linearGradient id="paint0_linear_581_1462" x1="127.953" y1="160.18" x2="239.453" y2="260.68" gradientUnits="userSpaceOnUse">
<stop stop-color="#34495A"/>
<stop offset="1" stop-color="#12212D" stop-opacity="0.45"/>
</linearGradient>
<linearGradient id="paint1_linear_581_1462" x1="346.656" y1="556.504" x2="421.994" y2="624.409" gradientUnits="userSpaceOnUse">
<stop stop-color="#34495A"/>
<stop offset="1" stop-color="#12212D" stop-opacity="0.45"/>
</linearGradient>
</defs>
</svg>
