<svg xmlns="http://www.w3.org/2000/svg" width="1284" height="316" fill="none"><path d="M722.004 98.142c-24.958 1.116-47.458 15.769-58.537 38.136l-1.816 4.727h127.058l-4.557-9.454c-10.399-17.338-28.247-29.835-49.518-32.804-4.254-.605-8.489-.794-12.63-.605zm-546.386-2.893c-39.819 0-72.094 32.218-72.094 71.981s32.275 71.999 72.094 71.999 72.094-32.237 72.094-71.999-32.275-71.981-72.094-71.981zm544.76-33.107c6.334-.284 12.781 0 19.248.908 51.863 7.26 90.415 51.674 90.282 104.028l-36.037-.094v-.038H657.133l-.568 5.899c2.156 24.41 17.338 46.626 40.954 56.949 31.462 13.765 68.274 2.212 86.218-27.056l30.743 18.832c-27.359 44.621-83.457 62.224-131.425 41.237s-73.096-74.174-58.821-124.543c12.497-44.074 51.768-74.155 96.144-76.122zm285.782-.094h35.38v.057h144.72v208.682h-35.38V97.461h-109.34v173.268h-35.38V62.048zm-693.483 0h35.357v.057H492.77v208.682h-35.375V97.461H348.034v173.268h-35.357V62.048zm542.151-.416h35.376v.019h93.327v35.376h-93.327v173.287h-35.376V61.632zm-601.085 0h35.376v208.681h-35.376v-36.454l-5.181 6.259c-18.661 18.661-44.451 30.195-72.944 30.195-56.987 0-103.178-46.153-103.178-103.083 0-56.912 46.191-103.065 103.178-103.065 28.493 0 54.283 11.533 72.944 30.176l5.181 6.277V61.632zm279.716-.718h35.376v79.752h26.508v25.96h-26.508v77.52h26.527v25.941h-62.243v-25.941h.34v-77.52h-22.916v-25.96h22.916V60.913z" fill="#fff"/><path d="M1283.7 240.685v30.1h-80.71v-30.1h80.71z" fill="#56ff9d"/><path fill-rule="evenodd" d="M78.65 28.89 44.421 42.923l-13.45 33.24C20 103.275 17.38 111.647 16.76 121.575L16 133.746h14.832V110.305h6.847c5.579 0 8.114 1.298 13.696 7.014l6.849 7.014 5.896-11.312c11.733-22.51 30.145-41.635 50.703-52.666l9.757-5.236-6.941-6.778-6.941-6.778 2.414-10.258c4.732-20.107 8.109-19.87-34.462-2.416z" fill="#4de89d"/></svg>