<svg width="74" height="74" viewBox="0 0 74 74" fill="none" xmlns="http://www.w3.org/2000/svg">
<path d="M36.9999 0L37.986 27.6167L44.6926 0.808539L39.9155 28.0268L52.0493 3.19882L41.7174 28.8291L58.7482 7.06637L43.3133 29.9884L64.4961 12.2422L44.633 31.4543L69.0431 18.5L45.6191 33.1624L72.1892 25.5664L46.2289 35.0383L73.7972 33.1324L46.4349 37L73.7972 40.8676L46.2289 38.9617L72.1892 48.4337L45.6191 40.8376L69.0431 55.5L44.633 42.5459L64.4961 61.7578L43.3133 44.0115L58.7482 66.9337L41.7174 45.1711L52.0493 70.8013L39.9155 45.9732L44.6926 73.1916L37.986 46.3832L36.9999 74L36.0137 46.3832L29.3072 73.1916L34.0844 45.9732L21.9507 70.8013L32.2824 45.1711L15.2519 66.9337L30.6867 44.0115L9.50358 61.7578L29.3669 42.5459L4.95702 55.5L28.3806 40.8376L1.81086 48.4337L27.7711 38.9617L0.202637 40.8676L27.5649 37L0.202637 33.1324L27.7711 35.0383L1.81086 25.5664L28.3806 33.1624L4.95702 18.5L29.3669 31.4543L9.50358 12.2422L30.6867 29.9884L15.2519 7.06637L32.2824 28.8291L21.9507 3.19882L34.0844 28.0268L29.3072 0.808539L36.0137 27.6167L36.9999 0Z" fill="black"/>
</svg>
