<svg width="74" height="74" viewBox="0 0 74 74" fill="none" xmlns="http://www.w3.org/2000/svg">
<path d="M37 0L37.7544 21.6432C37.9243 26.5225 43.7551 28.9377 47.3256 25.6077L63.1631 10.837L48.3923 26.6744C45.0623 30.2449 47.4777 36.0757 52.3569 36.2458L74 37L52.3569 37.7544C47.4777 37.9243 45.0623 43.7551 48.3923 47.3256L63.1631 63.1631L47.3256 48.3923C43.7551 45.0623 37.9243 47.4777 37.7544 52.3569L37 74L36.2458 52.3569C36.0757 47.4777 30.2449 45.0623 26.6744 48.3923L10.837 63.1631L25.6077 47.3256C28.9377 43.7551 26.5225 37.9243 21.6432 37.7544L0 37L21.6432 36.2458C26.5225 36.0757 28.9377 30.2449 25.6077 26.6744L10.837 10.837L26.6744 25.6077C30.2449 28.9377 36.0757 26.5225 36.2458 21.6432L37 0Z" fill="black"/>
</svg>
