<svg width="75" height="74" viewBox="0 0 75 74" fill="none" xmlns="http://www.w3.org/2000/svg">
<path fill-rule="evenodd" clip-rule="evenodd" d="M74.5 36.4537C73.1965 36.8099 71.8245 37 70.4082 37H53.8662C45.3133 37 38.3799 43.9334 38.3799 52.486V70.788C38.3799 71.8892 38.2648 72.9636 38.0465 74C37.6902 72.6965 37.5 71.3245 37.5 69.9082V53.3662C37.5 44.8133 30.5666 37.8799 22.0139 37.8799H3.71205C2.61074 37.8799 1.53627 37.7648 0.5 37.5465C1.80347 37.1902 3.17549 37 4.59194 37H21.134C29.6867 37 36.6201 30.0666 36.6201 21.5139V3.21204C36.6201 2.11072 36.7351 1.03626 36.9537 0C37.3099 1.30347 37.5 2.6755 37.5 4.09194V20.634C37.5 29.1867 44.4334 36.1201 52.9863 36.1201H71.288C72.3892 36.1201 73.4636 36.2351 74.5 36.4537Z" fill="black"/>
</svg>
