<svg width="70" height="49" viewBox="0 0 70 49" fill="none" xmlns="http://www.w3.org/2000/svg">
<path d="M0.540741 37.0658L0.627151 37.6045L0.71701 37.5852C1.33118 40.2495 2.746 42.6979 4.79778 44.6474C6.84955 46.5968 9.45441 47.9675 12.311 48.6008C15.1675 49.2342 18.159 49.1043 20.9394 48.2263C23.7197 47.3482 26.1752 45.7578 28.0217 43.6392C29.8683 41.5206 31.0304 38.9602 31.3736 36.2544C31.7169 33.5486 31.2272 30.808 29.9613 28.3496C28.6954 25.8911 26.705 23.8155 24.2204 22.3627C21.7358 20.9099 18.8585 20.1394 15.9215 20.1403C15.1507 20.1403 14.411 20.2493 13.6748 20.3487C13.9133 19.6049 14.1587 18.8482 14.5527 18.1685C14.9468 17.181 15.562 16.3249 16.1738 15.4625C16.6853 14.5295 17.5874 13.8978 18.251 13.0995C18.9458 12.3236 19.8928 11.8074 20.6428 11.163C21.379 10.4897 22.3433 10.153 23.1107 9.67848C23.9125 9.25206 24.6107 8.78074 25.3573 8.55631L27.2202 7.84454L28.8586 7.21292L27.1857 0.996094L25.1222 1.45779C24.4621 1.61169 23.6568 1.79123 22.7408 2.00605C21.8042 2.16636 20.8053 2.60561 19.6923 3.00638C18.5967 3.46487 17.3213 3.76945 16.1392 4.50367C14.9502 5.20262 13.5781 5.78616 12.3683 6.72237C11.1966 7.68744 9.783 8.52425 8.73919 9.74902C7.59859 10.8968 6.47182 12.1024 5.59737 13.4746C4.58466 14.7827 3.89685 16.2191 3.17102 17.6395C2.51432 19.0598 1.98549 20.5122 1.55345 21.923C0.734299 24.7508 0.367922 27.4376 0.226212 29.7365C0.108696 32.0385 0.177824 33.9526 0.32299 35.3377C0.371563 35.9161 0.444201 36.4926 0.540741 37.0658ZM38.5605 37.0658L38.6469 37.6045L38.7368 37.5852C39.3509 40.2495 40.7658 42.6979 42.8175 44.6474C44.8693 46.5968 47.4742 47.9675 50.3307 48.6008C53.1873 49.2342 56.1788 49.1043 58.9591 48.2263C61.7394 47.3482 64.1949 45.7578 66.0415 43.6392C67.888 41.5206 69.0501 38.9602 69.3934 36.2544C69.7367 33.5486 69.247 30.808 67.9811 28.3496C66.7152 25.8911 64.7248 23.8155 62.2402 22.3627C59.7555 20.9099 56.8782 20.1394 53.9412 20.1403C53.1705 20.1403 52.4308 20.2493 51.6946 20.3487C51.9331 19.6049 52.1785 18.8482 52.5725 18.1685C52.9665 17.181 53.5818 16.3249 54.1935 15.4625C54.7051 14.5295 55.6072 13.8978 56.2708 13.0995C56.9655 12.3236 57.9126 11.8074 58.6626 11.163C59.3988 10.4897 60.3631 10.153 61.1304 9.67848C61.9323 9.25206 62.6305 8.78074 63.377 8.55631L65.24 7.84454C66.2804 7.45018 66.8749 7.21933 66.8749 7.21933L65.202 1.00251L63.1385 1.4642C62.4784 1.6181 61.6731 1.79765 60.7571 2.01246C59.8205 2.17277 58.8216 2.61202 57.7086 3.0128C56.613 3.47128 55.3376 3.77587 54.1555 4.51009C52.9665 5.20904 51.5944 5.79257 50.3846 6.72878C49.2129 7.69384 47.7993 8.53066 46.7555 9.75543C45.6149 10.9032 44.4881 12.1088 43.6137 13.481C42.601 14.7892 41.9132 16.2255 41.1873 17.6459C40.5306 19.0662 40.0018 20.5186 39.5698 21.9294C38.7506 24.7572 38.3842 27.444 38.2425 29.7429C38.125 32.0449 38.1941 33.959 38.3393 35.3441C38.3909 35.9203 38.4647 36.4945 38.5605 37.0658Z" fill="#EBEDF0"/>
</svg>
