<svg width="495" height="750" viewBox="0 0 495 750" fill="none" xmlns="http://www.w3.org/2000/svg">
<g filter="url(#filter0_f_581_1463)">
<ellipse cx="309.608" cy="189.527" rx="30.5" ry="35.5" fill="#4DF3A3" fill-opacity="0.7"/>
</g>
<g filter="url(#filter1_f_581_1463)">
<ellipse cx="208.044" cy="540.5" rx="34" ry="35.5" fill="#4DF3A3" fill-opacity="0.7"/>
</g>
<path d="M312.284 321.805C312.077 321.622 311.761 321.642 311.579 321.848L308.598 325.22C308.415 325.427 308.434 325.743 308.641 325.925C308.848 326.108 309.164 326.089 309.347 325.882L311.996 322.885L314.993 325.535C315.2 325.718 315.516 325.699 315.699 325.492C315.882 325.285 315.862 324.969 315.655 324.786L312.284 321.805ZM253.854 513.479C254.469 512.654 255.079 511.834 255.684 511.02L254.881 510.424C254.277 511.238 253.668 512.057 253.052 512.881L253.854 513.479ZM259.271 506.156C260.48 504.506 261.666 502.876 262.829 501.264L262.018 500.679C260.857 502.288 259.672 503.917 258.464 505.565L259.271 506.156ZM266.364 496.321C267.551 494.645 268.713 492.99 269.848 491.352L269.026 490.783C267.893 492.417 266.734 494.07 265.549 495.743L266.364 496.321ZM273.274 486.351C274.423 484.653 275.543 482.973 276.635 481.309L275.8 480.76C274.71 482.42 273.592 484.096 272.446 485.791L273.274 486.351ZM279.923 476.217C281.021 474.487 282.088 472.772 283.125 471.07L282.271 470.55C281.237 472.246 280.173 473.956 279.078 475.682L279.923 476.217ZM286.23 465.861C287.26 464.091 288.258 462.333 289.223 460.584L288.347 460.101C287.386 461.843 286.392 463.594 285.366 465.358L286.23 465.861ZM292.088 455.234C293.03 453.42 293.937 451.613 294.81 449.809L293.91 449.373C293.041 451.168 292.138 452.967 291.201 454.774L292.088 455.234ZM297.373 444.306C298.204 442.446 299 440.587 299.761 438.725L298.835 438.346C298.078 440.199 297.287 442.048 296.46 443.898L297.373 444.306ZM301.962 433.067C302.665 431.165 303.333 429.256 303.966 427.335L303.017 427.022C302.387 428.931 301.723 430.829 301.024 432.72L301.962 433.067ZM305.767 421.536C306.33 419.598 306.861 417.646 307.36 415.675L306.391 415.43C305.895 417.389 305.367 419.33 304.806 421.257L305.767 421.536ZM308.749 409.761C309.175 407.798 309.571 405.813 309.938 403.804L308.954 403.624C308.589 405.623 308.195 407.597 307.772 409.549L308.749 409.761ZM310.935 397.817C311.233 395.839 311.506 393.836 311.752 391.803L310.76 391.683C310.514 393.706 310.243 395.7 309.946 397.668L310.935 397.817ZM312.403 385.769C312.592 383.782 312.758 381.766 312.902 379.719L311.904 379.649C311.761 381.688 311.595 383.696 311.408 385.675L312.403 385.769ZM313.262 373.658C313.359 371.67 313.437 369.652 313.497 367.602L312.497 367.572C312.437 369.616 312.36 371.628 312.263 373.609L313.262 373.658ZM313.62 361.548C313.644 359.561 313.652 357.543 313.645 355.493L312.645 355.497C312.652 357.542 312.644 359.554 312.62 361.536L313.62 361.548ZM313.581 349.436C313.547 347.446 313.5 345.426 313.44 343.374L312.44 343.403C312.5 345.451 312.547 347.468 312.581 349.454L313.581 349.436ZM313.229 337.299C313.149 335.31 313.059 333.291 312.958 331.242L311.959 331.291C312.06 333.337 312.15 335.353 312.23 337.339L313.229 337.299ZM312.635 325.213C312.576 324.199 312.515 323.178 312.452 322.149L311.454 322.21C311.517 323.238 311.578 324.258 311.636 325.27L312.635 325.213Z" fill="#4DF3A3"/>
<circle cx="311.453" cy="219.68" r="74" fill="url(#paint0_linear_581_1463)"/>
<path d="M290.302 242.607C289.938 242.607 289.643 242.312 289.643 241.948V195.691C289.643 191.825 292.787 188.68 296.654 188.68H332.162C332.525 188.68 332.821 188.975 332.821 189.339V237.877C332.821 238.241 332.525 238.536 332.162 238.536C331.798 238.536 331.503 238.241 331.503 237.877V189.998H296.655C293.515 189.998 290.961 192.553 290.961 195.692V241.948C290.961 242.312 290.666 242.607 290.302 242.607L290.302 242.607Z" fill="#4DF3A3"/>
<path d="M332.161 246.678H294.374C291.766 246.678 289.643 244.556 289.643 241.946C289.643 239.338 291.764 237.215 294.374 237.215H332.162C332.525 237.215 332.821 237.51 332.821 237.874V246.017C332.82 246.382 332.525 246.678 332.161 246.678L332.161 246.678ZM294.374 238.534C292.492 238.534 290.961 240.066 290.961 241.947C290.961 243.829 292.492 245.361 294.374 245.361H331.503V238.535L294.374 238.534Z" fill="#4DF3A3"/>
<path d="M296.491 238.537C296.127 238.537 295.832 238.241 295.832 237.878V189.343C295.832 188.979 296.127 188.684 296.491 188.684C296.855 188.684 297.15 188.979 297.15 189.343V237.878C297.15 238.241 296.856 238.537 296.491 238.537Z" fill="#4DF3A3"/>
<path d="M326.868 242.603H295.597C295.233 242.603 294.938 242.308 294.938 241.944C294.938 241.581 295.233 241.285 295.597 241.285H326.869C327.233 241.285 327.528 241.581 327.528 241.944C327.527 242.309 327.232 242.603 326.868 242.603H326.868Z" fill="#4DF3A3"/>
<path d="M308.949 228.772C308.812 228.772 308.672 228.728 308.554 228.64L301.808 223.58C301.643 223.457 301.545 223.26 301.545 223.053C301.545 222.846 301.643 222.65 301.808 222.526L308.554 217.468C308.845 217.249 309.257 217.309 309.476 217.6C309.695 217.891 309.635 218.304 309.344 218.522L303.301 223.054L309.344 227.586C309.635 227.805 309.695 228.217 309.476 228.508C309.349 228.681 309.149 228.772 308.949 228.772H308.949Z" fill="#4DF3A3"/>
<path d="M319.702 228.776C319.502 228.776 319.304 228.685 319.175 228.512C318.956 228.221 319.016 227.809 319.307 227.59L325.35 223.057L319.307 218.526C319.016 218.307 318.957 217.895 319.175 217.604C319.394 217.312 319.806 217.253 320.097 217.472L326.843 222.53C327.009 222.654 327.106 222.85 327.106 223.057C327.106 223.264 327.009 223.46 326.843 223.584L320.097 228.643C319.979 228.732 319.839 228.776 319.702 228.776H319.702Z" fill="#4DF3A3"/>
<path d="M312.608 230.121C312.551 230.121 312.494 230.113 312.436 230.099C312.084 230.005 311.876 229.643 311.97 229.292L315.404 216.473C315.499 216.121 315.86 215.913 316.211 216.007C316.563 216.1 316.771 216.463 316.677 216.813L313.243 229.632C313.165 229.928 312.899 230.121 312.608 230.121V230.121Z" fill="#4DF3A3"/>
<path d="M326.449 198.408H302.206C301.842 198.408 301.547 198.112 301.547 197.749C301.547 197.385 301.842 197.09 302.206 197.09H326.449C326.812 197.09 327.108 197.385 327.108 197.749C327.108 198.112 326.812 198.408 326.449 198.408V198.408Z" fill="#4DF3A3"/>
<path d="M326.449 202.681H302.206C301.842 202.681 301.547 202.386 301.547 202.022C301.547 201.659 301.842 201.363 302.206 201.363H326.449C326.812 201.363 327.108 201.659 327.108 202.022C327.108 202.386 326.812 202.681 326.449 202.681V202.681Z" fill="#4DF3A3"/>
<path d="M326.449 206.951H302.206C301.842 206.951 301.547 206.655 301.547 206.292C301.547 205.928 301.842 205.633 302.206 205.633H326.449C326.812 205.633 327.108 205.928 327.108 206.292C327.108 206.656 326.812 206.951 326.449 206.951V206.951Z" fill="#4DF3A3"/>
<path d="M326.449 211.22H302.206C301.842 211.22 301.547 210.925 301.547 210.561C301.547 210.198 301.842 209.902 302.206 209.902H326.449C326.812 209.902 327.108 210.198 327.108 210.561C327.108 210.925 326.812 211.22 326.449 211.22V211.22Z" fill="#4DF3A3"/>
<circle cx="210.453" cy="578.68" r="52" fill="url(#paint1_linear_581_1463)"/>
<path d="M217.184 599.432H191.329C190.393 599.432 189.631 598.67 189.631 597.734V563.096C189.631 562.16 190.393 561.398 191.329 561.398H217.184C218.121 561.398 218.883 562.16 218.883 563.096V597.734C218.883 598.67 218.121 599.432 217.184 599.432ZM191.329 562.695C191.112 562.695 190.928 562.879 190.928 563.096V597.733C190.928 597.959 191.104 598.135 191.329 598.135H217.184C217.409 598.135 217.585 597.959 217.585 597.734L217.586 563.096C217.586 562.879 217.402 562.696 217.185 562.696L191.329 562.695Z" fill="#4DF3A3"/>
<path d="M220.971 595.959H218.234C217.876 595.959 217.585 595.669 217.585 595.311V563.097C217.585 562.879 217.402 562.696 217.184 562.696L194.066 562.695C193.708 562.695 193.418 562.405 193.418 562.047V559.624C193.418 558.687 194.18 557.926 195.116 557.926H220.971C221.908 557.926 222.67 558.687 222.67 559.624V594.261C222.67 595.198 221.908 595.959 220.971 595.959L220.971 595.959ZM218.882 594.662H220.971C221.189 594.662 221.372 594.479 221.372 594.261V559.624C221.372 559.399 221.196 559.223 220.971 559.223H195.116C194.891 559.223 194.715 559.399 194.715 559.624V561.399H217.184C218.12 561.399 218.882 562.16 218.882 563.097L218.882 594.662Z" fill="#4DF3A3"/>
<path d="M199.558 571.994H195.019C194.333 571.994 193.775 571.436 193.775 570.751V566.22C193.775 565.535 194.333 564.977 195.019 564.977H199.558C200.244 564.977 200.802 565.535 200.802 566.22V570.751C200.802 571.436 200.244 571.994 199.558 571.994ZM195.073 570.697H199.505V566.274H195.073V570.697Z" fill="#4DF3A3"/>
<path d="M199.558 581.065H195.019C194.333 581.065 193.775 580.507 193.775 579.821V575.291C193.775 574.605 194.333 574.047 195.019 574.047H199.558C200.244 574.047 200.802 574.605 200.802 575.291V579.821C200.802 580.506 200.244 581.065 199.558 581.065ZM195.073 579.767H199.505V575.344H195.073V579.767Z" fill="#4DF3A3"/>
<path d="M199.558 590.138H195.019C194.333 590.138 193.775 589.58 193.775 588.895V584.364C193.775 583.678 194.333 583.121 195.019 583.121H199.558C200.244 583.121 200.802 583.679 200.802 584.364V588.895C200.802 589.581 200.244 590.138 199.558 590.138ZM195.073 588.841H199.505V584.418H195.073V588.841Z" fill="#4DF3A3"/>
<path d="M214.089 566.926H205.043C204.685 566.926 204.395 566.635 204.395 566.277C204.395 565.919 204.685 565.629 205.043 565.629H214.089C214.447 565.629 214.737 565.919 214.737 566.277C214.737 566.635 214.447 566.926 214.089 566.926Z" fill="#4DF3A3"/>
<path d="M214.089 576H205.043C204.685 576 204.395 575.71 204.395 575.352C204.395 574.994 204.685 574.703 205.043 574.703H214.089C214.447 574.703 214.737 574.994 214.737 575.352C214.737 575.71 214.447 576 214.089 576Z" fill="#4DF3A3"/>
<path d="M214.089 580.41H205.043C204.685 580.41 204.395 580.12 204.395 579.762C204.395 579.404 204.685 579.113 205.043 579.113H214.089C214.447 579.113 214.737 579.404 214.737 579.762C214.737 580.12 214.447 580.41 214.089 580.41Z" fill="#4DF3A3"/>
<path d="M207.499 590.162C207.333 590.162 207.167 590.099 207.04 589.972L204.585 587.517C204.331 587.263 204.331 586.853 204.585 586.6C204.838 586.346 205.248 586.346 205.502 586.6L207.498 588.596L212.147 583.948C212.4 583.694 212.811 583.694 213.064 583.948C213.317 584.201 213.317 584.612 213.064 584.865L207.957 589.972C207.83 590.099 207.664 590.162 207.499 590.162L207.499 590.162Z" fill="#4DF3A3"/>
<path d="M227.942 598.6C226.562 598.6 225.439 597.474 225.439 596.089V591.855C225.439 591.497 225.73 591.207 226.088 591.207H229.805C230.163 591.207 230.454 591.497 230.454 591.855V596.089C230.454 597.474 229.327 598.6 227.942 598.6H227.942ZM226.736 592.504V596.089C226.736 596.758 227.277 597.303 227.942 597.303C228.612 597.303 229.157 596.758 229.157 596.089V592.504H226.736Z" fill="#4DF3A3"/>
<path d="M229.805 592.504H226.088C225.73 592.504 225.44 592.214 225.44 591.856L225.439 572.438C225.439 572.185 225.496 571.917 225.604 571.661L227.344 567.541C227.446 567.301 227.681 567.145 227.941 567.145H227.942C228.202 567.145 228.437 567.3 228.539 567.54L230.288 571.659C230.396 571.917 230.453 572.185 230.453 572.438V591.856C230.454 592.214 230.163 592.504 229.805 592.504L229.805 592.504ZM226.737 591.207H229.157L229.157 572.438C229.157 572.36 229.134 572.26 229.094 572.165L227.943 569.456L226.799 572.166C226.759 572.26 226.736 572.36 226.736 572.438L226.737 591.207Z" fill="#4DF3A3"/>
<defs>
<filter id="filter0_f_581_1463" x="125.108" y="0.0273438" width="369" height="379" filterUnits="userSpaceOnUse" color-interpolation-filters="sRGB">
<feFlood flood-opacity="0" result="BackgroundImageFix"/>
<feBlend mode="normal" in="SourceGraphic" in2="BackgroundImageFix" result="shape"/>
<feGaussianBlur stdDeviation="77" result="effect1_foregroundBlur_581_1463"/>
</filter>
<filter id="filter1_f_581_1463" x="0.0439453" y="331" width="416" height="419" filterUnits="userSpaceOnUse" color-interpolation-filters="sRGB">
<feFlood flood-opacity="0" result="BackgroundImageFix"/>
<feBlend mode="normal" in="SourceGraphic" in2="BackgroundImageFix" result="shape"/>
<feGaussianBlur stdDeviation="87" result="effect1_foregroundBlur_581_1463"/>
</filter>
<linearGradient id="paint0_linear_581_1463" x1="259.953" y1="163.18" x2="371.453" y2="263.68" gradientUnits="userSpaceOnUse">
<stop stop-color="#34495A"/>
<stop offset="1" stop-color="#12212D" stop-opacity="0.45"/>
</linearGradient>
<linearGradient id="paint1_linear_581_1463" x1="174.264" y1="538.977" x2="252.615" y2="609.599" gradientUnits="userSpaceOnUse">
<stop stop-color="#34495A"/>
<stop offset="1" stop-color="#12212D" stop-opacity="0.45"/>
</linearGradient>
</defs>
</svg>
