<svg width="319" height="320" viewBox="0 0 319 320" fill="none" xmlns="http://www.w3.org/2000/svg">
<g opacity="0.24" filter="url(#filter0_f_339_1885)">
<circle cx="159.5" cy="159.66" r="49.5" fill="#4DF3A3" fill-opacity="0.5"/>
</g>
<path d="M189.678 159.154L173.581 170.154L182.258 178.3C183.285 179.264 184.907 179.213 185.858 178.186L196.353 167.006C200.89 162.173 202.198 155.462 200.388 149.526C197.308 153.138 193.73 156.394 189.678 159.154Z" fill="#4DF3A3"/>
<path d="M148.101 146.237L158.05 129.477C160.562 125.258 163.585 121.47 166.995 118.167C165.462 117.794 163.885 117.614 162.264 117.665C157.489 117.816 153.068 119.822 149.792 123.311L139.309 134.478C138.345 135.505 138.397 137.127 139.424 138.091L148.101 146.237Z" fill="#4DF3A3"/>
<path d="M207.626 108.47C207.612 108.432 207.611 108.394 207.61 108.368C207.572 108.357 207.533 108.358 207.508 108.359C205.675 108.187 203.846 108.13 202.021 108.188C186.115 108.69 171.001 117.665 162.437 132.081L148.946 154.792C148.327 155.834 148.522 157.131 149.404 157.959L161.783 169.592C162.652 170.408 163.996 170.506 164.972 169.836L186.799 154.937C202.221 144.406 210.398 126.168 207.627 108.47L207.626 108.47ZM178.994 129.603C178.918 127.215 179.78 124.94 181.411 123.202C183.042 121.464 185.26 120.46 187.647 120.385C190.034 120.309 192.31 121.171 194.048 122.802C195.786 124.433 196.789 126.651 196.865 129.038C196.94 131.425 196.079 133.701 194.448 135.439C192.816 137.177 190.599 138.18 188.212 138.256C185.824 138.331 183.549 137.47 181.811 135.839C180.072 134.207 179.069 131.989 178.994 129.603Z" fill="#4DF3A3"/>
<path d="M190.72 131.941C191.425 131.203 191.791 130.221 191.758 129.2C191.726 128.179 191.301 127.234 190.549 126.529C189.811 125.825 188.829 125.459 187.808 125.491C186.786 125.524 185.842 125.949 185.137 126.701C184.433 127.451 184.067 128.421 184.099 129.442C184.131 130.463 184.557 131.421 185.308 132.112C186.046 132.817 187.054 133.156 188.049 133.125C189.045 133.093 190.029 132.691 190.72 131.941Z" fill="#4DF3A3"/>
<path d="M147.563 165.705L147.422 165.709C144.678 165.796 142.387 167.696 141.832 170.371L139.705 180.699L149.878 177.911C152.551 177.188 154.326 174.704 154.173 171.897C153.988 168.453 151.025 165.672 147.563 165.705L147.563 165.705Z" fill="#4DF3A3"/>
<path d="M129.375 191.716C128.348 190.752 126.727 190.804 125.762 191.831L115.267 202.998C114.303 204.025 114.354 205.646 115.381 206.611C115.895 207.093 116.554 207.328 117.205 207.307C117.856 207.286 118.498 207.01 118.98 206.497L129.476 195.329C130.454 194.301 130.403 192.681 129.375 191.716L129.375 191.716Z" fill="#4DF3A3"/>
<path d="M140.327 194.986L129.832 206.166C128.868 207.193 128.919 208.814 129.946 209.778C130.46 210.26 131.119 210.495 131.77 210.474C132.42 210.454 133.063 210.178 133.545 209.664L144.04 198.484C145.004 197.457 144.953 195.836 143.926 194.872C142.899 193.907 141.291 193.958 140.327 194.986Z" fill="#4DF3A3"/>
<path d="M125.419 180.989C126.383 179.962 126.332 178.341 125.305 177.377C124.278 176.413 122.657 176.464 121.693 177.491L111.198 188.671C110.234 189.698 110.285 191.319 111.312 192.283C111.825 192.765 112.484 193 113.135 192.98C113.786 192.959 114.429 192.683 114.911 192.17L125.419 180.989Z" fill="#4DF3A3"/>
<defs>
<filter id="filter0_f_339_1885" x="0" y="0.160156" width="319" height="319" filterUnits="userSpaceOnUse" color-interpolation-filters="sRGB">
<feFlood flood-opacity="0" result="BackgroundImageFix"/>
<feBlend mode="normal" in="SourceGraphic" in2="BackgroundImageFix" result="shape"/>
<feGaussianBlur stdDeviation="55" result="effect1_foregroundBlur_339_1885"/>
</filter>
</defs>
</svg>
