<svg width="67" height="55" viewBox="0 0 67 55" fill="none" xmlns="http://www.w3.org/2000/svg">
<path opacity="0.35" d="M63.8295 32.3501C63.872 31.7631 63.9177 31.176 63.9177 30.5768C63.9177 17.1387 63.9177 0.160156 39.5843 0.160156C18.2926 0.160156 15.251 17.1387 15.251 30.5768C15.251 44.0149 26.1462 54.9102 39.5843 54.9102C49.2355 54.9102 57.5515 49.277 61.4843 41.1314C61.7794 41.1922 62.0835 41.2227 62.3968 41.2227C64.9153 41.2227 66.9593 39.1787 66.9593 36.6602C66.9593 34.6435 65.6423 32.9524 63.8295 32.3501Z" fill="#4DF3A3"/>
<path d="M50.23 36.6602C52.7498 36.6602 54.7925 34.6175 54.7925 32.0977C54.7925 29.5779 52.7498 27.5352 50.23 27.5352C47.7102 27.5352 45.6675 29.5779 45.6675 32.0977C45.6675 34.6175 47.7102 36.6602 50.23 36.6602Z" fill="#4DF3A3"/>
<path d="M30.1854 21.4505H19.0073C15.6097 21.4505 12.9574 24.2215 12.9604 27.5339H10.6883C9.85186 27.5339 9.16748 26.8525 9.16748 26.013C9.16748 21.0764 12.565 16.9489 17.1306 15.7504C18.2317 12.1826 19.9198 8.87627 22.5265 6.24219H19.8133C8.91198 6.24219 0.0424805 15.1117 0.0424805 26.013C0.0424805 31.8834 4.8179 36.6589 10.6883 36.6589H13.9003L14.2897 40.1537C14.7581 44.3604 19.2719 46.815 23.0557 44.9231L34.389 39.2564C37.5736 37.6657 39.5842 34.4111 39.5842 30.8493C39.5842 25.6572 35.3745 21.4505 30.1854 21.4505ZM28.9383 36.6589C26.4198 36.6589 24.3758 34.6149 24.3758 32.0964C24.3758 29.5779 26.4198 27.5339 28.9383 27.5339C31.4568 27.5339 33.5008 29.5779 33.5008 32.0964C33.5008 34.6149 31.4568 36.6589 28.9383 36.6589Z" fill="#4DF3A3"/>
</svg>
