<svg width="444" height="444" viewBox="0 0 444 444" fill="none" xmlns="http://www.w3.org/2000/svg">
<g filter="url(#filter0_f_530_2599)">
<circle cx="222" cy="222" r="72" fill="#4DE89D" fill-opacity="0.32"/>
</g>
<g opacity="0.9">
<path d="M223.873 246.207C230.546 245.531 236.724 242.005 240.713 236.488C247.12 227.683 246.593 215.316 239.501 207.151C233.609 200.307 224.49 197.387 215.792 199.535C214.489 199.837 213.158 199.541 212.219 198.687L204.524 191.689C203.46 190.722 202.123 190.306 200.696 190.494L197.306 190.954C196.236 191.125 195.184 191.653 194.444 192.467L188.925 198.536C188.185 199.349 187.759 200.447 187.69 201.528L187.553 204.947C187.501 206.386 188.042 207.677 189.105 208.644L196.738 215.586C197.739 216.496 198.216 217.731 198.034 218.937C196.793 226.838 199.624 234.786 205.568 240.191C210.454 244.748 217.144 246.945 223.874 246.207L223.873 246.207ZM208.828 201.662L199.327 212.111L196.448 209.493L205.95 199.045L208.828 201.662ZM191.932 205.158L192.069 201.739C192.063 201.62 192.121 201.557 192.177 201.495L197.696 195.426C197.753 195.364 197.81 195.301 197.929 195.295L201.32 194.835C201.439 194.829 201.502 194.887 201.564 194.943L202.753 196.024L193.251 206.473L192.062 205.392C192 205.335 191.875 205.221 191.932 205.158L191.932 205.158ZM202.317 219.631C202.494 218.306 202.375 217.055 202.016 215.814L205.942 211.497L215.327 220.032L215.866 231.38C215.923 232.575 216.986 233.543 218.181 233.486C219.376 233.429 220.343 232.365 220.286 231.171L219.747 221.079L229.782 220.603C230.977 220.546 231.944 219.483 231.887 218.288C231.83 217.093 230.767 216.126 229.572 216.183L218.223 216.722L208.838 208.187L212.821 203.808C214.152 204.104 215.409 204.104 216.769 203.74C223.869 201.966 231.287 204.368 236.161 209.944C241.928 216.674 242.342 226.652 237.175 233.842C236.731 234.581 236.219 235.144 235.764 235.645C232.52 239.211 228.254 241.389 223.486 241.855C218.065 242.412 212.53 240.579 208.463 236.88C203.589 232.562 201.303 226.025 202.317 219.631L202.317 219.631Z" fill="#4DF3A3"/>
<path d="M242.518 241.797C241.721 242.672 241.789 244.106 242.665 244.902L247.983 249.739C248.859 250.535 250.293 250.467 251.089 249.591C251.886 248.715 251.818 247.282 250.942 246.486L245.623 241.649C244.748 240.853 243.371 240.858 242.518 241.797Z" fill="#4DF3A3"/>
<path d="M251.874 226.989C251.089 226.846 250.264 227.125 249.752 227.688C249.525 227.938 249.303 228.307 249.2 228.672C248.956 229.821 249.672 231.044 250.883 231.346L257.96 232.866C259.109 233.111 260.332 232.395 260.634 231.183C260.878 230.034 260.162 228.811 258.951 228.509L251.874 226.989Z" fill="#4DF3A3"/>
<path d="M256.826 209.09L249.926 211.274C249.573 211.41 249.226 211.666 248.998 211.917C248.486 212.479 248.287 213.327 248.503 214.095C248.855 215.216 250.084 215.876 251.325 215.518L258.225 213.334C259.346 212.982 260.006 211.753 259.648 210.513C259.232 209.335 258.004 208.675 256.826 209.09L256.826 209.09Z" fill="#4DF3A3"/>
<path d="M240.612 201.659C241.488 202.455 242.921 202.387 243.718 201.511L248.554 196.193C249.351 195.317 249.283 193.884 248.407 193.087C247.531 192.291 246.097 192.359 245.301 193.235L240.464 198.553C239.667 199.428 239.673 200.805 240.612 201.659Z" fill="#4DF3A3"/>
<path d="M230.098 193.24L231.681 186.221C231.925 185.071 231.209 183.848 229.998 183.546C229.213 183.404 228.388 183.683 227.876 184.246C227.648 184.496 227.426 184.865 227.324 185.23L225.803 192.306C225.559 193.455 226.275 194.678 227.487 194.98C228.693 195.163 229.854 194.389 230.098 193.24L230.098 193.24Z" fill="#4DF3A3"/>
<path d="M186.16 236.272L193.061 234.088C194.182 233.736 194.842 232.507 194.483 231.267C194.131 230.146 192.902 229.486 191.662 229.844L184.761 232.028C184.409 232.164 184.062 232.42 183.834 232.671C183.322 233.234 183.123 234.081 183.339 234.849C183.754 236.027 184.983 236.687 186.16 236.272L186.16 236.272Z" fill="#4DF3A3"/>
<path d="M197.689 252.125L202.526 246.806C203.322 245.93 203.254 244.497 202.378 243.7C201.502 242.904 200.069 242.972 199.272 243.848L194.436 249.166C193.639 250.042 193.707 251.475 194.583 252.272C195.459 253.069 196.893 253.001 197.689 252.125Z" fill="#4DF3A3"/>
<path d="M213.385 251.09C213.158 251.34 212.936 251.71 212.833 252.074L211.313 259.151C211.068 260.3 211.784 261.523 212.996 261.825C214.145 262.069 215.368 261.353 215.67 260.142L217.19 253.064C217.435 251.915 216.719 250.692 215.507 250.39C214.665 250.311 213.898 250.527 213.385 251.09L213.385 251.09Z" fill="#4DF3A3"/>
<path d="M230.145 249.743C229.792 249.879 229.445 250.135 229.217 250.386C228.705 250.949 228.506 251.796 228.722 252.564L230.906 259.465C231.258 260.586 232.487 261.246 233.727 260.887C234.848 260.535 235.508 259.306 235.15 258.066L232.966 251.165C232.551 249.988 231.322 249.328 230.145 249.743L230.145 249.743Z" fill="#4DF3A3"/>
</g>
<defs>
<filter id="filter0_f_530_2599" x="0" y="0" width="444" height="444" filterUnits="userSpaceOnUse" color-interpolation-filters="sRGB">
<feFlood flood-opacity="0" result="BackgroundImageFix"/>
<feBlend mode="normal" in="SourceGraphic" in2="BackgroundImageFix" result="shape"/>
<feGaussianBlur stdDeviation="75" result="effect1_foregroundBlur_530_2599"/>
</filter>
</defs>
</svg>
